<svg id="dot3-purple" xmlns="http://www.w3.org/2000/svg" xmlns:xlink="http://www.w3.org/1999/xlink" width="27.605" height="38.76" viewBox="0 0 27.605 38.76">
  <defs>
    <clipPath id="clip-path">
      <rect id="Rectangle_3788" data-name="Rectangle 3788" width="27.605" height="38.76" fill="#6d007d"/>
    </clipPath>
  </defs>
  <g id="Group_12445" data-name="Group 12445" transform="translate(0)" clip-path="url(#clip-path)">
    <path id="Path_67" data-name="Path 67" d="M12.263,3.022a6.557,6.557,0,0,1-2.2,9.029A6.608,6.608,0,0,1,.949,10.044,6.551,6.551,0,0,1,3.231,1.035a6.5,6.5,0,0,1,9.035,1.987" transform="translate(0 -0.001)" fill="#6d007d"/>
    <path id="Path_68" data-name="Path 68" d="M116.073,134.642a4.306,4.306,0,1,1-5.863-1.291,4.26,4.26,0,0,1,5.863,1.291" transform="translate(-93.981 -115.32)" fill="#6d007d"/>
    <path id="Path_69" data-name="Path 69" d="M170.593,252.294a3.021,3.021,0,1,1-4.074-.894,2.959,2.959,0,0,1,4.074.894" transform="translate(-143.416 -218.064)" fill="#6d007d"/>
  </g>
</svg>
