<svg xmlns="http://www.w3.org/2000/svg" xmlns:xlink="http://www.w3.org/1999/xlink" width="593" height="576" viewBox="0 0 593 576">
  <defs>
    <filter id="Ellipse_124" x="129" y="170" width="282" height="282" filterUnits="userSpaceOnUse">
      <feOffset dy="5" input="SourceAlpha"/>
      <feGaussianBlur stdDeviation="8" result="blur"/>
      <feFlood flood-color="#6d007d" flood-opacity="0.2"/>
      <feComposite operator="in" in2="blur"/>
      <feComposite in="SourceGraphic"/>
    </filter>
  </defs>
  <g id="slider-img-2bg" transform="translate(-971 -929)">
    <path id="_63902f1c48764924db6ac172_shape-02" data-name="63902f1c48764924db6ac172_shape-02" d="M530.63,358.611l-1.495,2.4-1.448,2.416-1.4,2.429-1.356,2.446-1.31,2.464-1.268,2.487-1.225,2.509-1.184,2.536-1.147,2.562-1.111,2.592-1.079,2.622-1.05,2.652-1.024,2.686-1,2.717-.984,2.749-.97,2.782-.961,2.812-.955,2.844-.955,2.874-1.924,5.83-.978,2.954-1,2.976-1.017,3-1.042,3.015-1.072,3.029-1.1,3.042-1.143,3.051-1.183,3.058-1.228,3.06-1.275,3.06-1.325,3.058-1.377,3.051-1.432,3.04-1.489,3.029-1.547,3.013-1.606,2.994-1.667,2.974-1.728,2.951-1.789,2.927-1.851,2.9-1.911,2.871-1.973,2.841-2.034,2.809-2.094,2.775-2.154,2.74-2.212,2.705-2.271,2.669-2.328,2.631-2.384,2.593-2.439,2.553-2.494,2.513-2.547,2.473-2.6,2.434-2.65,2.393-2.7,2.352-2.748,2.312-2.794,2.272-2.841,2.232-2.885,2.192-2.929,2.153-2.971,2.115-3.013,2.076-3.053,2.038-3.093,2-3.131,1.964-3.169,1.927-3.206,1.891-3.243,1.856-3.278,1.821-3.313,1.787-3.347,1.752-3.382,1.717-3.415,1.684L385.879,551,382.4,552.61l-3.515,1.58-3.548,1.546-3.58,1.509-3.611,1.474-3.643,1.436-3.676,1.4-3.707,1.359-3.738,1.319-3.768,1.277-3.8,1.233-3.83,1.188-3.859,1.143-3.89,1.1-3.917,1.047-3.945,1-3.973.948-4,.9-4.026.844-4.051.792-4.076.738-4.1.684-4.123.629-4.145.574-4.166.516-4.187.459-4.207.4-4.225.341-4.243.281-4.259.219-4.275.157-4.288.094-4.3.028-4.313-.037-4.324-.1-4.332-.171-4.34-.241-4.346-.31-4.35-.381-4.352-.455-4.353-.528-4.352-.6-4.35-.679-4.345-.756-4.337-.834L199.3,574.8l-4.317-.993-4.3-1.073-4.289-1.156-4.27-1.237-4.251-1.321-4.228-1.4-4.2-1.488-4.175-1.572-4.145-1.657-4.113-1.742-4.079-1.825-4.041-1.91-4-1.994-3.961-2.078-3.916-2.16-3.87-2.242-3.821-2.324-3.771-2.4-3.718-2.483-3.663-2.561-3.607-2.637-3.55-2.713-3.489-2.786-3.428-2.858-3.365-2.929-3.3-3L94.188,519.2l-3.168-3.126-3.1-3.189-3.032-3.249-2.963-3.306-2.892-3.361-2.822-3.415-2.75-3.466-2.679-3.515-2.607-3.561-2.535-3.606-2.462-3.646-2.39-3.687-2.318-3.724-2.245-3.76L54.052,466.8l-2.1-3.824-2.029-3.853-1.957-3.88-1.885-3.9-1.814-3.929-1.743-3.95-1.673-3.969-1.6-3.988-1.533-4-1.464-4.017-1.4-4.031L33.527,419.4l-1.262-4.051-1.2-4.058-1.131-4.065-1.066-4.069-1-4.072-.94-4.075-.878-4.075-.816-4.076-.755-4.073-.7-4.071-.635-4.068-.576-4.064-.517-4.058-.459-4.051-.4-4.044-.343-4.037-.285-4.028-.228-4.018-.171-4.008-.114-4L20,334.359v-3.974l.057-3.96.113-3.945.169-3.931.224-3.915.28-3.9.334-3.882.388-3.865L22,299.143l.493-3.826.545-3.806.6-3.786.649-3.765.7-3.742.752-3.72.8-3.7.855-3.673.908-3.648.96-3.623,1.014-3.6,1.067-3.57,1.122-3.542,1.176-3.513,1.232-3.483,1.288-3.452,1.344-3.421,1.4-3.387,1.459-3.354,1.517-3.319,1.576-3.281,1.635-3.244,1.694-3.205,1.754-3.164L50.36,211.2l1.873-3.079,1.932-3.034,1.991-2.989,2.049-2.941,2.107-2.893,2.165-2.843L64.7,190.63l2.276-2.739L69.3,185.2l2.383-2.632L74.122,180l2.485-2.52,2.533-2.462,2.579-2.405,2.623-2.347,2.665-2.287,2.7-2.228,2.742-2.169,2.777-2.109,2.809-2.049,2.839-1.99,2.866-1.931,2.89-1.872,2.912-1.814,2.93-1.757,2.946-1.7,2.958-1.645,2.969-1.591,2.976-1.538,2.98-1.486,2.981-1.436,2.981-1.389,2.976-1.341,2.97-1.3,2.962-1.254,2.951-1.214,2.937-1.175,2.922-1.139,2.905-1.1,2.885-1.073,2.864-1.043,2.841-1.017,2.818-.992,2.792-.969,2.765-.95,2.737-.934,8.034-2.725,2.615-.892,2.585-.888,2.552-.888,2.521-.889,2.487-.893,2.455-.9,2.422-.911,2.389-.923,2.358-.939,2.327-.957,2.3-.977,2.266-1,2.238-1.023,2.211-1.051,2.185-1.078,2.161-1.108,2.138-1.14,2.118-1.172,2.1-1.206,2.083-1.239,2.069-1.274,2.058-1.309,2.048-1.344,2.042-1.38,2.037-1.415,2.035-1.449,2.035-1.483L244.5,89.8l2.045-1.548L248.6,86.67l2.064-1.608,2.077-1.635,2.092-1.66,2.11-1.684,6.461-5.169,2.2-1.754,2.232-1.765,2.263-1.773,2.3-1.778,2.328-1.78,2.364-1.778,2.4-1.773,2.438-1.765,2.474-1.754,2.514-1.739,2.554-1.721,2.595-1.7,2.634-1.673,2.675-1.645,2.716-1.612,2.757-1.577,2.8-1.538,2.836-1.5,2.876-1.449,2.914-1.4,2.952-1.348,2.987-1.292,3.022-1.233,3.057-1.171,3.088-1.105,3.12-1.037,3.147-.966,3.176-.893,3.2-.817,3.223-.738,3.244-.658,3.261-.575,3.278-.49,3.291-.4,3.3-.315,3.31-.226,3.316-.135L371.556,28l3.319.049,3.317.142,3.311.236,3.3.33,3.292.423,3.279.517,3.263.611,3.244.7,3.222.8,3.2.889,3.172.98,3.143,1.07,3.111,1.159,3.077,1.247,3.041,1.333,3,1.418,2.963,1.5,2.92,1.581,2.877,1.658,2.832,1.733,2.786,1.806,2.739,1.875L442.661,52l2.643,2,2.594,2.061,2.546,2.116,2.5,2.167,2.451,2.214,2.4,2.257,2.358,2.3,2.314,2.332,2.271,2.363,2.231,2.39,2.191,2.414,2.154,2.433,2.121,2.449,2.089,2.461,2.06,2.47,2.035,2.476,2.012,2.478,1.992,2.478,1.976,2.475,5.859,7.386,1.942,2.442,1.942,2.43,1.945,2.417,1.953,2.4L501.2,115.8l1.974,2.373,1.989,2.358,2.006,2.344L509.2,125.2l2.047,2.317,2.072,2.3,2.1,2.295,2.123,2.287,2.151,2.278,2.179,2.275,2.206,2.272,2.234,2.272,2.26,2.275,2.285,2.281,2.307,2.29,4.672,4.621,2.356,2.337,2.365,2.36,2.368,2.386,2.367,2.414,2.361,2.447,2.347,2.48,2.329,2.519,2.3,2.557,2.271,2.6,2.232,2.643,2.187,2.686,2.134,2.734,2.074,2.779,2.008,2.827,1.934,2.874,1.853,2.92,1.767,2.968,1.674,3.012,1.575,3.056,1.47,3.1,1.36,3.138,1.246,3.174,1.127,3.21,1,3.241.878,3.27.751,3.3.62,3.317.489,3.334.357,3.347.225,3.359.095,3.363-.036,3.366-.164,3.364-.292,3.359-.416,3.349-.537,3.337-.656,3.32-.771,3.3-.881,3.277-.988,3.252-1.09,3.223-1.187,3.192-1.279,3.159-1.364,3.124-1.445,3.086-1.519,3.048-1.588,3.008-1.65,2.968-1.707,2.926-1.755,2.885-1.8,2.845L565,310.9l-1.865,2.763-1.889,2.722-1.906,2.685-1.919,2.648-1.924,2.612-1.924,2.579-1.919,2.548-1.908,2.519-3.766,4.962-1.848,2.449-1.819,2.432-1.787,2.417-1.752,2.4-1.714,2.4-1.673,2.392-1.631,2.39-1.587,2.392Z" transform="translate(976.039 901)" fill="#e9dfff" fill-rule="evenodd"/>
    <g transform="matrix(1, 0, 0, 1, 971, 929)" filter="url(#Ellipse_124)">
      <circle id="Ellipse_124-2" data-name="Ellipse 124" cx="117" cy="117" r="117" transform="translate(153 189)" fill="#f8f8f8"/>
    </g>
    <g id="Ellipse_1838" data-name="Ellipse 1838" transform="translate(1093 1087)" fill="none" stroke="#cdb8fc" stroke-width="2">
      <circle cx="148" cy="148" r="148" stroke="none"/>
      <circle cx="148" cy="148" r="147" fill="none"/>
    </g>
    <g id="Ellipse_1839" data-name="Ellipse 1839" transform="translate(1030 1024)" fill="none" stroke="#f8f8f8" stroke-width="2">
      <circle cx="211" cy="211" r="211" stroke="none"/>
      <circle cx="211" cy="211" r="210" fill="none"/>
    </g>
    <g id="Ellipse_1840" data-name="Ellipse 1840" transform="translate(971 965)" fill="none" stroke="#cdb7fc" stroke-width="2">
      <circle cx="270" cy="270" r="270" stroke="none"/>
      <circle cx="270" cy="270" r="269" fill="none"/>
    </g>
  </g>
</svg>
