<svg xmlns="http://www.w3.org/2000/svg" width="46.772" height="46.772" viewBox="0 0 46.772 46.772">
  <g id="icon1" transform="translate(-2 -2)">
    <path id="Path_100145" data-name="Path 100145" d="M43.4,31.217V9.668a3.838,3.838,0,0,0-3.834-3.834H38.037V4.3a2.3,2.3,0,1,0-4.6,0V5.834H29.6V4.3a2.3,2.3,0,1,0-4.6,0V5.834H20.4V4.3a2.3,2.3,0,1,0-4.6,0V5.834H11.968V4.3a2.3,2.3,0,0,0-4.6,0V5.834H5.834A3.838,3.838,0,0,0,2,9.668v30.67a3.838,3.838,0,0,0,3.834,3.834H31.615A9.194,9.194,0,1,0,43.4,31.217ZM34.97,4.3a.767.767,0,0,1,1.534,0V8.9a.767.767,0,0,1-1.534,0Zm-8.434,0a.767.767,0,0,1,1.534,0V8.9a.767.767,0,0,1-1.534,0Zm-9.2,0a.767.767,0,0,1,1.534,0V8.9a.767.767,0,1,1-1.534,0ZM8.9,4.3a.767.767,0,0,1,1.534,0V8.9A.767.767,0,0,1,8.9,8.9ZM5.834,7.367H7.367V8.9a2.3,2.3,0,1,0,4.6,0V7.367H15.8V8.9a2.3,2.3,0,1,0,4.6,0V7.367H25V8.9a2.3,2.3,0,1,0,4.6,0V7.367h3.834V8.9a2.3,2.3,0,1,0,4.6,0V7.367h1.534a2.3,2.3,0,0,1,2.3,2.3V13.5H3.534V9.668A2.3,2.3,0,0,1,5.834,7.367Zm0,35.271a2.3,2.3,0,0,1-2.3-2.3v-25.3H41.871V30.673a8.756,8.756,0,0,0-3.834-.164V26.536a.766.766,0,0,0-.767-.767h-4.6a.766.766,0,0,0-.767.767v4.6a.766.766,0,0,0,.767.767H34.5a9.149,9.149,0,0,0-3.589,10.735ZM36.5,30.37H33.437V27.3H36.5Zm3.067,16.869a7.668,7.668,0,1,1,7.668-7.668A7.677,7.677,0,0,1,39.571,47.238Z" transform="translate(0 0)" fill="#5a5a5a"/>
    <path id="Path_100146" data-name="Path 100146" d="M50.455,47.813V43H48.921v4.813a1.464,1.464,0,0,0-.744,1.547l-2.8,2.241.958,1.2,2.8-2.24a1.528,1.528,0,0,0,1.321-2.747Z" transform="translate(-10.117 -9.563)" fill="#ef1855"/>
    <path id="Path_100147" data-name="Path 100147" d="M13.367,22h-4.6A.766.766,0,0,0,8,22.767v4.6a.766.766,0,0,0,.767.767h4.6a.766.766,0,0,0,.767-.767v-4.6A.766.766,0,0,0,13.367,22ZM12.6,26.6H9.534V23.534H12.6Z" transform="translate(-1.399 -4.665)" fill="#5a5a5a"/>
    <path id="Path_100148" data-name="Path 100148" d="M24.367,22h-4.6a.766.766,0,0,0-.767.767v4.6a.766.766,0,0,0,.767.767h4.6a.766.766,0,0,0,.767-.767v-4.6A.766.766,0,0,0,24.367,22ZM23.6,26.6H20.534V23.534H23.6Z" transform="translate(-3.965 -4.665)" fill="#5a5a5a"/>
    <path id="Path_100149" data-name="Path 100149" d="M35.367,22h-4.6a.766.766,0,0,0-.767.767v4.6a.766.766,0,0,0,.767.767h4.6a.766.766,0,0,0,.767-.767v-4.6A.766.766,0,0,0,35.367,22ZM34.6,26.6H31.534V23.534H34.6Z" transform="translate(-6.531 -4.665)" fill="#5a5a5a"/>
    <path id="Path_100150" data-name="Path 100150" d="M41.767,28.134h4.6a.766.766,0,0,0,.767-.767v-4.6A.766.766,0,0,0,46.367,22h-4.6a.766.766,0,0,0-.767.767v4.6A.766.766,0,0,0,41.767,28.134Zm.767-4.6H45.6V26.6H42.534Z" transform="translate(-9.097 -4.665)" fill="#5a5a5a"/>
    <path id="Path_100151" data-name="Path 100151" d="M13.367,33h-4.6A.766.766,0,0,0,8,33.767v4.6a.766.766,0,0,0,.767.767h4.6a.766.766,0,0,0,.767-.767v-4.6A.766.766,0,0,0,13.367,33ZM12.6,37.6H9.534V34.534H12.6Z" transform="translate(-1.399 -7.231)" fill="#5a5a5a"/>
    <path id="Path_100152" data-name="Path 100152" d="M24.367,33h-4.6a.766.766,0,0,0-.767.767v4.6a.766.766,0,0,0,.767.767h4.6a.766.766,0,0,0,.767-.767v-4.6A.766.766,0,0,0,24.367,33ZM23.6,37.6H20.534V34.534H23.6Z" transform="translate(-3.965 -7.231)" fill="#5a5a5a"/>
    <path id="Path_100153" data-name="Path 100153" d="M35.367,33h-4.6a.766.766,0,0,0-.767.767v4.6a.766.766,0,0,0,.767.767h4.6a.766.766,0,0,0,.767-.767v-4.6A.766.766,0,0,0,35.367,33ZM34.6,37.6H31.534V34.534H34.6Z" transform="translate(-6.531 -7.231)" fill="#5a5a5a"/>
    <path id="Path_100154" data-name="Path 100154" d="M13.367,44h-4.6A.766.766,0,0,0,8,44.767v4.6a.766.766,0,0,0,.767.767h4.6a.766.766,0,0,0,.767-.767v-4.6A.766.766,0,0,0,13.367,44ZM12.6,48.6H9.534V45.534H12.6Z" transform="translate(-1.399 -9.796)" fill="#5a5a5a"/>
    <path id="Path_100155" data-name="Path 100155" d="M24.367,44h-4.6a.766.766,0,0,0-.767.767v4.6a.766.766,0,0,0,.767.767h4.6a.766.766,0,0,0,.767-.767v-4.6A.766.766,0,0,0,24.367,44ZM23.6,48.6H20.534V45.534H23.6Z" transform="translate(-3.965 -9.796)" fill="#5a5a5a"/>
    <path id="Path_100156" data-name="Path 100156" d="M35.367,44h-4.6a.766.766,0,0,0-.767.767v4.6a.766.766,0,0,0,.767.767h4.6a.766.766,0,0,0,.767-.767v-4.6A.766.766,0,0,0,35.367,44ZM34.6,48.6H31.534V45.534H34.6Z" transform="translate(-6.531 -9.796)" fill="#5a5a5a"/>
  </g>
</svg>
