<svg xmlns="http://www.w3.org/2000/svg" width="45" height="45" viewBox="0 0 45 45">
  <g id="icon2" transform="translate(-689 -3750)">
    <g id="Rectangle_8306" data-name="Rectangle 8306" transform="translate(689 3750)" fill="#fff" stroke="#5a5a5a" stroke-width="1.5">
      <rect width="45" height="45" rx="5" stroke="none"/>
      <rect x="0.75" y="0.75" width="43.5" height="43.5" rx="4.25" fill="none"/>
    </g>
    <g id="Group_20093" data-name="Group 20093" transform="translate(697.031 3759.21)">
      <path id="Path_100157" data-name="Path 100157" d="M4.209,14.678A1.192,1.192,0,0,1,3.02,13.489,10.7,10.7,0,0,1,22.979,8.139a1.191,1.191,0,0,1-2.057,1.2A8.32,8.32,0,0,0,5.4,13.5,1.192,1.192,0,0,1,4.209,14.69Z" transform="translate(0.387)" fill="#ef1855"/>
      <path id="Path_100158" data-name="Path 100158" d="M13.52,23.1a10.639,10.639,0,0,1-9.57-5.92,1.188,1.188,0,1,1,2.128-1.058,8.324,8.324,0,0,0,15.775-3.709,1.189,1.189,0,1,1,2.378,0,10.715,10.715,0,0,1-10.7,10.7Z" transform="translate(0.539 1.591)" fill="#ef1855"/>
      <path id="Path_100159" data-name="Path 100159" d="M4.691,14.1H4.536a1.214,1.214,0,0,1-.8-.452L1.22,10.394A1.187,1.187,0,1,1,3.1,8.944l1.783,2.318L7.2,9.467a1.187,1.187,0,0,1,1.45,1.878l-3.257,2.52a1.167,1.167,0,0,1-.725.25Z" transform="translate(0 1.074)" fill="#ef1855"/>
      <path id="Path_100160" data-name="Path 100160" d="M23.124,16.424a1.154,1.154,0,0,1-.939-.464L20.4,13.642l-2.318,1.8a1.187,1.187,0,0,1-1.45-1.878l3.257-2.52a1.214,1.214,0,0,1,.88-.238,1.162,1.162,0,0,1,.785.452l2.52,3.257a1.178,1.178,0,0,1-.214,1.664,1.192,1.192,0,0,1-.725.25Z" transform="translate(2.869 1.511)" fill="#ef1855"/>
    </g>
  </g>
</svg>
