<svg xmlns="http://www.w3.org/2000/svg" width="48.985" height="49.031" viewBox="0 0 48.985 49.031">
  <g id="icon4" transform="translate(-10 -10)">
    <path id="Path_100161" data-name="Path 100161" d="M27.595,23.782l-1.469-.428a1.14,1.14,0,0,1-.735-.551,1.223,1.223,0,0,1-.122-.918,1.187,1.187,0,0,1,1.469-.857l1.959.551a.795.795,0,0,0,.428-1.53l-1.653-.428V18.4a.8.8,0,1,0-1.592,0v1.1a2.865,2.865,0,0,0-2.142,2.02,2.655,2.655,0,0,0,.306,2.142,2.614,2.614,0,0,0,1.714,1.285l1.53.428a1.316,1.316,0,0,1,.735.551,1.223,1.223,0,0,1,.122.918,1.316,1.316,0,0,1-.551.735,1.223,1.223,0,0,1-.918.122l-1.959-.49a.795.795,0,0,0-.428,1.53l1.653.428v1.224a.8.8,0,1,0,1.592,0v-1.1a3.539,3.539,0,0,0,.857-.306,2.614,2.614,0,0,0,1.285-1.714,2.655,2.655,0,0,0-.306-2.142A2.767,2.767,0,0,0,27.595,23.782Z" transform="translate(-5.291 -2.948)" fill="#ef1855"/>
    <path id="Path_100162" data-name="Path 100162" d="M28.523,67.7H23.687A2.39,2.39,0,0,0,21.3,70.087v8.937a2.39,2.39,0,0,0,2.387,2.387h4.836a2.39,2.39,0,0,0,2.387-2.387V70.087A2.43,2.43,0,0,0,28.523,67.7Zm.735,11.263a.81.81,0,0,1-.8.8H23.626a.81.81,0,0,1-.8-.8V70.087a.81.81,0,0,1,.8-.8h4.836a.81.81,0,0,1,.8.8Z" transform="translate(-4.383 -22.381)" fill="#5a5a5a"/>
    <path id="Path_100163" data-name="Path 100163" d="M51.523,50.9H46.687A2.39,2.39,0,0,0,44.3,53.287V72.447a2.39,2.39,0,0,0,2.387,2.387h4.836a2.39,2.39,0,0,0,2.387-2.387V53.287A2.474,2.474,0,0,0,51.523,50.9Zm.8,21.547a.81.81,0,0,1-.8.8H46.687a.81.81,0,0,1-.8-.8V53.287a.81.81,0,0,1,.8-.8h4.836a.81.81,0,0,1,.8.8Z" transform="translate(-13.304 -15.864)" fill="#5a5a5a"/>
    <path id="Path_100164" data-name="Path 100164" d="M81.1,52a.81.81,0,0,0-.8.8v2.265a.8.8,0,1,0,1.591,0V52.8A.772.772,0,0,0,81.1,52Z" transform="translate(-27.268 -16.291)" fill="#5a5a5a"/>
    <path id="Path_100165" data-name="Path 100165" d="M78.126,22.855,71.392,11.163A2.362,2.362,0,0,0,69.372,10a2.463,2.463,0,0,0-2.081,1.163L60.5,22.855a2.357,2.357,0,0,0,2.081,3.55h1.959V56.583a2.39,2.39,0,0,0,2.387,2.387h4.836a2.39,2.39,0,0,0,2.387-2.387V41.892a.8.8,0,0,0-1.592,0V56.583a.81.81,0,0,1-.8.8H66.924a.81.81,0,0,1-.8-.8V25.609a.81.81,0,0,0-.8-.8H62.578a.834.834,0,0,1-.673-.367.867.867,0,0,1,0-.8l6.733-11.692a.7.7,0,0,1,.673-.367.836.836,0,0,1,.673.367L76.718,23.65a.867.867,0,0,1,0,.8.706.706,0,0,1-.673.367H73.29a.81.81,0,0,0-.8.8v7.713a.8.8,0,1,0,1.592,0V26.4h1.959a2.357,2.357,0,0,0,2.081-3.55Z" transform="translate(-19.462 0)" fill="#5a5a5a"/>
    <path id="Path_100166" data-name="Path 100166" d="M21.385,10A11.385,11.385,0,1,0,32.771,21.385,11.364,11.364,0,0,0,21.385,10Zm0,21.118a9.794,9.794,0,1,1,9.794-9.794A9.823,9.823,0,0,1,21.385,31.118Z" transform="translate(0 0)" fill="#5a5a5a"/>
  </g>
</svg>
