<svg xmlns="http://www.w3.org/2000/svg" xmlns:xlink="http://www.w3.org/1999/xlink" width="520" height="472" viewBox="0 0 520 472">
  <defs>
    <clipPath id="clip-path">
      <rect id="Rectangle_8305" data-name="Rectangle 8305" width="32" height="32" rx="8" transform="translate(41 16)" fill="#fff"/>
    </clipPath>
  </defs>
  <g id="slide4" transform="translate(-25)">
    <path id="Path_100030" data-name="Path 100030" d="M186,142a8,8,0,0,1,8-8H463a8,8,0,0,1,8,8V386a8,8,0,0,1-8,8H194a8,8,0,0,1-8-8Z" fill="#d9d9d9"/>
    <rect id="Rectangle_8302" data-name="Rectangle 8302" width="520" height="472" rx="24" transform="translate(25)" fill="#fff"/>
    <rect id="Rectangle_8303" data-name="Rectangle 8303" width="520" height="472" rx="24" transform="translate(25)" fill="#6d007d"/>
    <g id="Group_20075" data-name="Group 20075" clip-path="url(#clip-path)">
      <rect id="Rectangle_8304" data-name="Rectangle 8304" width="32" height="32" rx="8" transform="translate(41 16)" fill="#fff"/>
      <path id="Path_100031" data-name="Path 100031" d="M50.936,33.054a6.457,6.457,0,0,0,9.017,0L58.084,31.04a6,6,0,0,1-6.149-1.371,5.865,5.865,0,0,1-1.718-3.613.314.314,0,0,0-.594-.111A6.23,6.23,0,0,0,50.936,33.054Z" fill="#7704cd"/>
      <path id="Path_100032" data-name="Path 100032" d="M55.654,38.8a6.348,6.348,0,0,0,5.73-6.881l-2.756.148a5.927,5.927,0,0,1-4.98,3.817,5.992,5.992,0,0,1-3.912-.988.311.311,0,0,0-.462.383A6.368,6.368,0,0,0,55.654,38.8Z" fill="#7704cd"/>
      <path id="Path_100033" data-name="Path 100033" d="M63.131,38.412A6.28,6.28,0,0,0,61.212,29.7l-1.593,2.23a5.81,5.81,0,0,1-.05,6.226,5.924,5.924,0,0,1-3.206,2.427.31.31,0,0,0,.019.6A6.4,6.4,0,0,0,63.131,38.412Z" fill="#7704cd"/>
      <path id="Path_100034" data-name="Path 100034" d="M58.513,32.969a5.319,5.319,0,1,0-5.38-5.318A5.35,5.35,0,0,0,58.513,32.969Z" fill="#fff"/>
      <path id="Path_100035" data-name="Path 100035" d="M62.673,33.487A2.341,2.341,0,1,0,60.3,31.146,2.355,2.355,0,0,0,62.673,33.487Z" fill="#7704cd"/>
      <path id="Path_100036" data-name="Path 100036" d="M62.67,32.237a1.087,1.087,0,1,0-1.1-1.087A1.094,1.094,0,0,0,62.67,32.237Z" fill="#fff"/>
      <path id="Path_100037" data-name="Path 100037" d="M59.157,33.674a2.341,2.341,0,1,0-2.368-2.341A2.355,2.355,0,0,0,59.157,33.674Z" fill="#7704cd"/>
      <path id="Path_100038" data-name="Path 100038" d="M59.162,32.237a1.087,1.087,0,1,0-1.1-1.087A1.094,1.094,0,0,0,59.162,32.237Z" fill="#fff"/>
      <path id="Path_100039" data-name="Path 100039" d="M59.734,31.828a.679.679,0,1,0-.687-.68A.683.683,0,0,0,59.734,31.828Z" fill="#7704cd"/>
      <path id="Path_100040" data-name="Path 100040" d="M63.25,31.828a.679.679,0,1,0-.687-.68A.683.683,0,0,0,63.25,31.828Z" fill="#7704cd"/>
    </g>
    <path id="Path_100050" data-name="Path 100050" d="M489.378,25.7a.9.9,0,0,0,0,1.8h2.328l-5.664,5.664a.9.9,0,1,0,1.272,1.273l5.664-5.664V31.1a.9.9,0,1,0,1.8,0V26.6a.9.9,0,0,0-.9-.9Z" fill="#cebdce"/>
    <path id="Path_100051" data-name="Path 100051" d="M492.43,27.2l-6.18,6.18a.6.6,0,0,0-.138.659.587.587,0,0,0,.131.2.593.593,0,0,0,.2.131.6.6,0,0,0,.464,0,.611.611,0,0,0,.2-.134l0,0,6.176-6.176V31.1a.6.6,0,0,0,1.2,0V26.6a.6.6,0,0,0-.6-.6h-4.5a.6.6,0,0,0,0,1.2Zm.548,3.9a.9.9,0,1,0,1.8,0V26.6a.9.9,0,0,0-.9-.9h-4.5a.9.9,0,0,0,0,1.8h2.328l-5.664,5.664a.9.9,0,1,0,1.272,1.273l5.664-5.664Z" fill="#5b225c" fill-rule="evenodd"/>
    <path id="Path_100052" data-name="Path 100052" d="M483.981,27.5a1.8,1.8,0,0,0-1.8,1.8v7.2a1.8,1.8,0,0,0,1.8,1.8h7.2a1.8,1.8,0,0,0,1.8-1.8V33.8a.9.9,0,0,0-1.8,0v2.7h-7.2V29.3h2.7a.9.9,0,1,0,0-1.8Z" fill="#cebdce"/>
    <path id="Path_100053" data-name="Path 100053" d="M491.481,36.8h-7.8V29h3a.6.6,0,0,0,0-1.2h-2.7a1.5,1.5,0,0,0-1.5,1.5v7.2a1.5,1.5,0,0,0,1.5,1.5h7.2a1.5,1.5,0,0,0,1.5-1.5V33.8a.6.6,0,0,0-1.2,0Zm-8.773-8.773a1.8,1.8,0,0,1,1.273-.527h2.7a.9.9,0,1,1,0,1.8h-2.7v7.2h7.2V33.8a.9.9,0,1,1,1.8,0v2.7a1.8,1.8,0,0,1-1.8,1.8h-7.2a1.8,1.8,0,0,1-1.8-1.8V29.3A1.8,1.8,0,0,1,482.708,28.027Z" fill="#5b225c" fill-rule="evenodd"/>
    <path id="Path_100054" data-name="Path 100054" d="M519.538,32l4.72-4.72a.75.75,0,1,0-1.06-1.06l-4.72,4.72-4.72-4.72a.732.732,0,0,0-.53-.22.755.755,0,0,0-.75.75.794.794,0,0,0,.22.53l4.72,4.72-4.72,4.72a.774.774,0,0,0-.22.53.755.755,0,0,0,.75.75.775.775,0,0,0,.53-.22l4.72-4.72,4.72,4.72a.794.794,0,0,0,.53.22.755.755,0,0,0,.75-.75.732.732,0,0,0-.22-.53Z" fill="rgba(255,255,255,0.7)"/>
    <path id="Path_100055" data-name="Path 100055" d="M68.439,253.848l.194-.981A7.065,7.065,0,0,0,70,253h2v1H70A8.032,8.032,0,0,1,68.439,253.848ZM492,254v-1h2a7.058,7.058,0,0,0,1.367-.133l.194.981A8.031,8.031,0,0,1,494,254Zm6.445-1.347-.556-.831a7.084,7.084,0,0,0,1.933-1.933l.831.556A8.085,8.085,0,0,1,498.445,252.653ZM502,119.016h-1V117a7.057,7.057,0,0,0-.133-1.367l.981-.194A8.03,8.03,0,0,1,502,117Zm-1.347-6.461-.831.556a7.084,7.084,0,0,0-1.933-1.933l.556-.831A8.084,8.084,0,0,1,500.653,112.555ZM72,109H70a8.031,8.031,0,0,0-1.561.152l.194.981A7.063,7.063,0,0,1,70,110h2Zm-6.445,1.347.556.831a7.065,7.065,0,0,0-1.933,1.933l-.831-.556A8.063,8.063,0,0,1,65.555,110.347ZM62,243.984h1V246a7.026,7.026,0,0,0,.133,1.367l-.981.194A8.038,8.038,0,0,1,62,246Zm1.347,6.461.831-.556a7.065,7.065,0,0,0,1.933,1.933l-.556.831A8.063,8.063,0,0,1,63.347,250.445ZM62,239.953h1v-4.031H62Zm0-8.062h1v-4.032H62Zm0-8.063h1V219.8H62Zm0-8.062h1v-4.032H62Zm0-8.063h1v-4.031H62Zm0-8.062h1v-4.032H62Zm0-8.063h1v-4.031H62Zm0-8.062h1v-4.032H62Zm0-8.063h1v-4.031H62Zm0-8.062h1v-4.032H62Zm0-8.063h1V155.3H62Zm0-8.062h1v-4.032H62Zm0-8.063h1v-4.031H62Zm0-8.062h1v-4.032H62Zm0-8.063h1v-4.031H62Zm0-8.062h1V117a7.026,7.026,0,0,1,.133-1.367l-.981-.194A8.038,8.038,0,0,0,62,117ZM76,109v1h4v-1Zm8,0v1h4v-1Zm8,0v1h4v-1Zm8,0v1h4v-1Zm8,0v1h4v-1Zm8,0v1h4v-1Zm8,0v1h4v-1Zm8,0v1h4v-1Zm8,0v1h4v-1Zm8,0v1h4v-1Zm8,0v1h4v-1Zm8,0v1h4v-1Zm8,0v1h4v-1Zm8,0v1h4v-1Zm8,0v1h4v-1Zm8,0v1h4v-1Zm8,0v1h4v-1Zm8,0v1h4v-1Zm8,0v1h4v-1Zm8,0v1h4v-1Zm8,0v1h4v-1Zm8,0v1h4v-1Zm8,0v1h4v-1Zm8,0v1h4v-1Zm8,0v1h4v-1Zm8,0v1h4v-1Zm8,0v1h4v-1Zm8,0v1h4v-1Zm8,0v1h4v-1Zm8,0v1h4v-1Zm8,0v1h4v-1Zm8,0v1h4v-1Zm8,0v1h4v-1Zm8,0v1h4v-1Zm8,0v1h4v-1Zm8,0v1h4v-1Zm8,0v1h4v-1Zm8,0v1h4v-1Zm8,0v1h4v-1Zm8,0v1h4v-1Zm8,0v1h4v-1Zm8,0v1h4v-1Zm8,0v1h4v-1Zm8,0v1h4v-1Zm8,0v1h4v-1Zm8,0v1h4v-1Zm8,0v1h4v-1Zm8,0v1h4v-1Zm8,0v1h4v-1Zm8,0v1h4v-1Zm8,0v1h4v-1Zm8,0v1h4v-1Zm8,0v1h2a7.057,7.057,0,0,1,1.367.133l.194-.981A8.031,8.031,0,0,0,494,109Zm10,14.047h-1v4.031h1Zm0,8.062h-1v4.032h1Zm0,8.063h-1V143.2h1Zm0,8.062h-1v4.032h1Zm0,8.063h-1v4.031h1Zm0,8.062h-1v4.032h1Zm0,8.063h-1v4.031h1Zm0,8.062h-1v4.032h1Zm0,8.063h-1v4.031h1Zm0,8.062h-1v4.032h1Zm0,8.063h-1V207.7h1Zm0,8.062h-1v4.032h1Zm0,8.063h-1v4.031h1Zm0,8.062h-1v4.032h1Zm0,8.063h-1v4.031h1Zm0,8.062h-1V246a7.057,7.057,0,0,1-.133,1.367l.981.194A8.03,8.03,0,0,0,502,246ZM488,254v-1h-4v1Zm-8,0v-1h-4v1Zm-8,0v-1h-4v1Zm-8,0v-1h-4v1Zm-8,0v-1h-4v1Zm-8,0v-1h-4v1Zm-8,0v-1h-4v1Zm-8,0v-1h-4v1Zm-8,0v-1h-4v1Zm-8,0v-1h-4v1Zm-8,0v-1h-4v1Zm-8,0v-1h-4v1Zm-8,0v-1h-4v1Zm-8,0v-1h-4v1Zm-8,0v-1h-4v1Zm-8,0v-1h-4v1Zm-8,0v-1h-4v1Zm-8,0v-1h-4v1Zm-8,0v-1h-4v1Zm-8,0v-1h-4v1Zm-8,0v-1h-4v1Zm-8,0v-1h-4v1Zm-8,0v-1h-4v1Zm-8,0v-1h-4v1Zm-8,0v-1h-4v1Zm-8,0v-1h-4v1Zm-8,0v-1h-4v1Zm-8,0v-1h-4v1Zm-8,0v-1h-4v1Zm-8,0v-1h-4v1Zm-8,0v-1h-4v1Zm-8,0v-1h-4v1Zm-8,0v-1h-4v1Zm-8,0v-1h-4v1Zm-8,0v-1h-4v1Zm-8,0v-1h-4v1Zm-8,0v-1h-4v1Zm-8,0v-1h-4v1Zm-8,0v-1h-4v1Zm-8,0v-1h-4v1Zm-8,0v-1h-4v1Zm-8,0v-1h-4v1Zm-8,0v-1h-4v1Zm-8,0v-1h-4v1Zm-8,0v-1h-4v1Zm-8,0v-1h-4v1Zm-8,0v-1h-4v1Zm-8,0v-1h-4v1Zm-8,0v-1h-4v1Zm-8,0v-1H92v1Zm-8,0v-1H84v1Zm-8,0v-1H76v1Z" fill="rgba(32,26,45,0.2)" fill-rule="evenodd"/>
    <path id="Path_100056" data-name="Path 100056" d="M41,72a8,8,0,0,1,8-8H521a8,8,0,0,1,8,8V448a8,8,0,0,1-8,8H49a8,8,0,0,1-8-8Z" fill="#f4f4f4"/>
    <path id="Path_100057" data-name="Path 100057" d="M71.439,247.848l.194-.981A7.065,7.065,0,0,0,73,247h2v1H73A8.032,8.032,0,0,1,71.439,247.848ZM263,248v-1h2a7.058,7.058,0,0,0,1.367-.133l.194.981A8.031,8.031,0,0,1,265,248Zm6.445-1.347-.556-.831a7.084,7.084,0,0,0,1.933-1.933l.831.556A8.085,8.085,0,0,1,269.445,246.653ZM273,98h-1V96a7.063,7.063,0,0,0-.133-1.367l.981-.194A8.031,8.031,0,0,1,273,96Zm-1.347-6.445-.831.556a7.065,7.065,0,0,0-1.933-1.933l.556-.831A8.064,8.064,0,0,1,271.653,91.555ZM75,88H73a8.039,8.039,0,0,0-1.561.152l.194.981A7.032,7.032,0,0,1,73,89h2Zm-6.445,1.348.556.831a7.046,7.046,0,0,0-1.933,1.933l-.831-.556A8.042,8.042,0,0,1,68.555,89.348ZM65,238h1v2a7.026,7.026,0,0,0,.133,1.367l-.981.194A8.038,8.038,0,0,1,65,240Zm1.348,6.445.831-.556a7.065,7.065,0,0,0,1.933,1.933l-.556.831A8.063,8.063,0,0,1,66.348,244.445ZM65,234h1v-4H65Zm0-8h1v-4H65Zm0-8h1v-4H65Zm0-8h1v-4H65Zm0-8h1v-4H65Zm0-8h1v-4H65Zm0-8h1v-4H65Zm0-8h1v-4H65Zm0-8h1v-4H65Zm0-8h1v-4H65Zm0-8h1v-4H65Zm0-8h1v-4H65Zm0-8h1v-4H65Zm0-8h1v-4H65Zm0-8h1v-4H65Zm0-8h1v-4H65Zm0-8h1v-4H65Zm0-8h1V96a7.032,7.032,0,0,1,.133-1.367l-.981-.194A8.039,8.039,0,0,0,65,96ZM79,88v1h4V88Zm8,0v1h4V88Zm8,0v1h4V88Zm8,0v1h4V88Zm8,0v1h4V88Zm8,0v1h4V88Zm8,0v1h4V88Zm8,0v1h4V88Zm8,0v1h4V88Zm8,0v1h4V88Zm8,0v1h4V88Zm8,0v1h4V88Zm8,0v1h4V88Zm8,0v1h4V88Zm8,0v1h4V88Zm8,0v1h4V88Zm8,0v1h4V88Zm8,0v1h4V88Zm8,0v1h4V88Zm8,0v1h4V88Zm8,0v1h4V88Zm8,0v1h4V88Zm8,0v1h4V88Zm8,0v1h2a7.026,7.026,0,0,1,1.367.133l.194-.981A8.038,8.038,0,0,0,265,88Zm10,14h-1v4h1Zm0,8h-1v4h1Zm0,8h-1v4h1Zm0,8h-1v4h1Zm0,8h-1v4h1Zm0,8h-1v4h1Zm0,8h-1v4h1Zm0,8h-1v4h1Zm0,8h-1v4h1Zm0,8h-1v4h1Zm0,8h-1v4h1Zm0,8h-1v4h1Zm0,8h-1v4h1Zm0,8h-1v4h1Zm0,8h-1v4h1Zm0,8h-1v4h1Zm0,8h-1v4h1Zm0,8h-1v2a7.057,7.057,0,0,1-.133,1.367l.981.194A8.03,8.03,0,0,0,273,240Zm-14,10v-1h-4v1Zm-8,0v-1h-4v1Zm-8,0v-1h-4v1Zm-8,0v-1h-4v1Zm-8,0v-1h-4v1Zm-8,0v-1h-4v1Zm-8,0v-1h-4v1Zm-8,0v-1h-4v1Zm-8,0v-1h-4v1Zm-8,0v-1h-4v1Zm-8,0v-1h-4v1Zm-8,0v-1h-4v1Zm-8,0v-1h-4v1Zm-8,0v-1h-4v1Zm-8,0v-1h-4v1Zm-8,0v-1h-4v1Zm-8,0v-1h-4v1Zm-8,0v-1h-4v1Zm-8,0v-1h-4v1Zm-8,0v-1h-4v1Zm-8,0v-1H95v1Zm-8,0v-1H87v1Zm-8,0v-1H79v1Z" fill="rgba(32,26,45,0.2)" fill-rule="evenodd"/>
    <g id="Group_20076" data-name="Group 20076">
      <path id="Path_100058" data-name="Path 100058" d="M64.3,94.97A8,8,0,0,1,72.97,87.7l191.269,16.734a8,8,0,0,1,7.272,8.667L258.961,256.55a8,8,0,0,1-8.667,7.272L59.025,247.088a8,8,0,0,1-7.272-8.666Z" fill="#fff"/>
    </g>
    <g id="Group_20077" data-name="Group 20077" opacity="0.7">
      <path id="Path_100059" data-name="Path 100059" d="M247.211,129.674a.8.8,0,0,1,1.127.1l4.364,5.2a.8.8,0,0,1-.1,1.127l-5.2,4.364a.8.8,0,0,1-1.028-1.226l3.72-3.122-9.233-.808a.8.8,0,0,1-.445-1.41.8.8,0,0,1,.584-.184l9.234.808-3.122-3.721a.8.8,0,0,1,.1-1.126Z" fill="#667085" fill-rule="evenodd"/>
    </g>
    <path id="Path_100060" data-name="Path 100060" d="M70.834,203.953A2,2,0,0,1,73,202.135l171.346,14.991a2,2,0,0,1,1.818,2.167l-.61,6.973a2,2,0,0,1-2.167,1.818L72.041,213.093a2,2,0,0,1-1.818-2.166Z" fill="rgba(32,26,45,0.16)"/>
    <path id="Path_100061" data-name="Path 100061" d="M69.169,222.879a2,2,0,0,1,2.167-1.818L160,228.818a2,2,0,0,1,1.819,2.167l-.611,6.973a2,2,0,0,1-2.166,1.818l-88.662-7.757a2,2,0,0,1-1.818-2.167Z" fill="rgba(32,26,45,0.08)"/>
    <path id="Path_100080" data-name="Path 100080" d="M79.016,110.309a6,6,0,0,1,6.5-5.454L105.44,106.6a6,6,0,0,1,5.454,6.5l-1.743,19.924a6,6,0,0,1-6.5,5.454l-19.924-1.743a6,6,0,0,1-5.454-6.5Z" fill="#eee7ff"/>
    <g id="Group_20078" data-name="Group 20078">
      <path id="Path_100082" data-name="Path 100082" d="M297,96a8,8,0,0,1,8-8H497a8,8,0,0,1,8,8V240a8,8,0,0,1-8,8H305a8,8,0,0,1-8-8Z" fill="#fff"/>
    </g>
    <g id="Group_20079" data-name="Group 20079" opacity="0.7">
      <path id="Path_100083" data-name="Path 100083" d="M482.241,114.634a.8.8,0,0,1,1.131,0l4.8,4.8a.8.8,0,0,1,0,1.131l-4.8,4.8a.8.8,0,0,1-1.131-1.131l3.434-3.434h-9.269a.8.8,0,0,1,0-1.6h9.269l-3.434-3.435a.8.8,0,0,1,0-1.131Z" fill="#667085" fill-rule="evenodd"/>
    </g>
    <path id="Path_100084" data-name="Path 100084" d="M313,204a2,2,0,0,1,2-2H487a2,2,0,0,1,2,2v7a2,2,0,0,1-2,2H315a2,2,0,0,1-2-2Z" fill="rgba(32,26,45,0.16)"/>
    <path id="Path_100085" data-name="Path 100085" d="M313,223a2,2,0,0,1,2-2h89a2,2,0,0,1,2,2v7a2,2,0,0,1-2,2H315a2,2,0,0,1-2-2Z" fill="rgba(32,26,45,0.08)"/>
    <path id="Path_100104" data-name="Path 100104" d="M313,110a6,6,0,0,1,6-6h20a6,6,0,0,1,6,6v20a6,6,0,0,1-6,6H319a6,6,0,0,1-6-6Z" fill="#fdec07" opacity="0.1"/>
    <g id="Group_20080" data-name="Group 20080">
      <path id="Path_100106" data-name="Path 100106" d="M65,280a8,8,0,0,1,8-8H265a8,8,0,0,1,8,8V424a8,8,0,0,1-8,8H73a8,8,0,0,1-8-8Z" fill="#fff"/>
    </g>
    <g id="Group_20081" data-name="Group 20081" opacity="0.7">
      <path id="Path_100107" data-name="Path 100107" d="M250.241,298.634a.8.8,0,0,1,1.131,0l4.8,4.8a.8.8,0,0,1,0,1.131l-4.8,4.8a.8.8,0,0,1-1.131-1.131l3.434-3.434h-9.269a.8.8,0,0,1,0-1.6h9.269l-3.434-3.435a.8.8,0,0,1,0-1.131Z" fill="#667085" fill-rule="evenodd"/>
    </g>
    <path id="Path_100108" data-name="Path 100108" d="M81,388a2,2,0,0,1,2-2H255a2,2,0,0,1,2,2v7a2,2,0,0,1-2,2H83a2,2,0,0,1-2-2Z" fill="rgba(32,26,45,0.16)"/>
    <path id="Path_100109" data-name="Path 100109" d="M81,407a2,2,0,0,1,2-2h89a2,2,0,0,1,2,2v7a2,2,0,0,1-2,2H83a2,2,0,0,1-2-2Z" fill="rgba(32,26,45,0.08)"/>
    <path id="Path_100122" data-name="Path 100122" d="M81,294a6,6,0,0,1,6-6h20a6,6,0,0,1,6,6v20a6,6,0,0,1-6,6H87a6,6,0,0,1-6-6Z" fill="#ef1855" opacity="0.1"/>
    <g id="Group_20082" data-name="Group 20082">
      <path id="Path_100124" data-name="Path 100124" d="M297,280a8,8,0,0,1,8-8H497a8,8,0,0,1,8,8V424a8,8,0,0,1-8,8H305a8,8,0,0,1-8-8Z" fill="#fff"/>
    </g>
    <g id="Group_20083" data-name="Group 20083" opacity="0.7">
      <path id="Path_100125" data-name="Path 100125" d="M482.241,298.634a.8.8,0,0,1,1.131,0l4.8,4.8a.8.8,0,0,1,0,1.131l-4.8,4.8a.8.8,0,0,1-1.131-1.131l3.434-3.434h-9.269a.8.8,0,0,1,0-1.6h9.269l-3.434-3.435a.8.8,0,0,1,0-1.131Z" fill="#667085" fill-rule="evenodd"/>
    </g>
    <path id="Path_100126" data-name="Path 100126" d="M313,388a2,2,0,0,1,2-2H487a2,2,0,0,1,2,2v7a2,2,0,0,1-2,2H315a2,2,0,0,1-2-2Z" fill="rgba(32,26,45,0.16)"/>
    <path id="Path_100127" data-name="Path 100127" d="M313,407a2,2,0,0,1,2-2h89a2,2,0,0,1,2,2v7a2,2,0,0,1-2,2H315a2,2,0,0,1-2-2Z" fill="rgba(32,26,45,0.08)"/>
    <path id="Path_100143" data-name="Path 100143" d="M313,294a6,6,0,0,1,6-6h20a6,6,0,0,1,6,6v20a6,6,0,0,1-6,6H319a6,6,0,0,1-6-6Z" fill="#6d007d" opacity="0.1"/>
    <text id="Branded_Scheduling_Your_Way_" data-name="Branded Scheduling,
Your Way!" transform="matrix(0.996, 0.087, -0.087, 0.996, 74.773, 169.561)" fill="#04000a" font-size="14" font-family="Poppins-Medium, Poppins" font-weight="500"><tspan x="0" y="0">Branded Scheduling,</tspan><tspan x="0" y="18">Your Way!</tspan></text>
    <text id="Two-Way_Sync_To_Optimise_Productiv_ity" data-name="Two-Way Sync To 
Optimise Productiv ity" transform="translate(311.19 170)" fill="#04000a" font-size="14" font-family="Poppins-Medium, Poppins" font-weight="500"><tspan x="0" y="0">Two-Way Sync To </tspan><tspan x="0" y="18">Optimise Productiv ity</tspan></text>
    <text id="The_Path_to_Boosted_Work_Life-Balance" data-name="The Path to Boosted 
Work Life-Balance" transform="translate(81 350.819)" fill="#04000a" font-size="14" font-family="Poppins-Medium, Poppins" font-weight="500"><tspan x="0" y="0">The Path to Boosted </tspan><tspan x="0" y="18">Work Life-Balance</tspan></text>
    <text id="Ramp_Up_The_Sales_Process_Today_" data-name="Ramp Up The Sales 
Process Today!" transform="translate(309.068 350.819)" fill="#04000a" font-size="14" font-family="Poppins-Medium, Poppins" font-weight="500"><tspan x="0" y="0">Ramp Up The Sales </tspan><tspan x="0" y="18">Process Today!</tspan></text>
    <g id="Group_20084" data-name="Group 20084" transform="matrix(0.996, 0.087, -0.087, 0.996, 83.814, 108.88)">
      <path id="Path_100145" data-name="Path 100145" d="M20.144,14.8V5.36a1.682,1.682,0,0,0-1.68-1.68h-.672V3.008a1.008,1.008,0,1,0-2.016,0V3.68H14.1V3.008a1.008,1.008,0,0,0-2.016,0V3.68H10.064V3.008a1.008,1.008,0,1,0-2.016,0V3.68H6.368V3.008a1.008,1.008,0,0,0-2.016,0V3.68H3.68A1.682,1.682,0,0,0,2,5.36V18.8a1.682,1.682,0,0,0,1.68,1.68h11.3A4.029,4.029,0,1,0,20.144,14.8Zm-3.7-11.8a.336.336,0,1,1,.672,0V5.024a.336.336,0,1,1-.672,0Zm-3.7,0a.336.336,0,1,1,.672,0V5.024a.336.336,0,1,1-.672,0Zm-4.032,0a.336.336,0,0,1,.672,0V5.024a.336.336,0,1,1-.672,0Zm-3.7,0a.336.336,0,0,1,.672,0V5.024a.336.336,0,0,1-.672,0ZM3.68,4.352h.672v.672a1.008,1.008,0,1,0,2.016,0V4.352h1.68v.672a1.008,1.008,0,1,0,2.016,0V4.352H12.08v.672a1.008,1.008,0,1,0,2.016,0V4.352h1.68v.672a1.008,1.008,0,1,0,2.016,0V4.352h.672A1.009,1.009,0,0,1,19.472,5.36V7.04H2.672V5.36A1.009,1.009,0,0,1,3.68,4.352Zm0,15.456A1.009,1.009,0,0,1,2.672,18.8V7.712h16.8v6.853a3.837,3.837,0,0,0-1.68-.072V12.752a.336.336,0,0,0-.336-.336H15.44a.336.336,0,0,0-.336.336v2.016a.336.336,0,0,0,.336.336h.8a4.009,4.009,0,0,0-1.573,4.7Zm13.44-5.376H15.776V13.088H17.12Zm1.344,7.392a3.36,3.36,0,1,1,3.36-3.36A3.364,3.364,0,0,1,18.464,21.824Z" fill="#6d007d"/>
      <path id="Path_100146" data-name="Path 100146" d="M47.6,45.109V43h-.672v2.109a.642.642,0,0,0-.326.678l-1.228.982.42.525,1.227-.982a.67.67,0,0,0,.579-1.2Z" transform="translate(-28.801 -27.224)" fill="#6d007d"/>
      <path id="Path_100147" data-name="Path 100147" d="M10.352,22H8.336A.336.336,0,0,0,8,22.336v2.016a.336.336,0,0,0,.336.336h2.016a.336.336,0,0,0,.336-.336V22.336A.336.336,0,0,0,10.352,22Zm-.336,2.016H8.672V22.672h1.344Z" transform="translate(-3.984 -13.28)" fill="#6d007d"/>
      <path id="Path_100148" data-name="Path 100148" d="M21.352,22H19.336a.336.336,0,0,0-.336.336v2.016a.336.336,0,0,0,.336.336h2.016a.336.336,0,0,0,.336-.336V22.336A.336.336,0,0,0,21.352,22Zm-.336,2.016H19.672V22.672h1.344Z" transform="translate(-11.288 -13.28)" fill="#6d007d"/>
      <path id="Path_100149" data-name="Path 100149" d="M32.352,22H30.336a.336.336,0,0,0-.336.336v2.016a.336.336,0,0,0,.336.336h2.016a.336.336,0,0,0,.336-.336V22.336A.336.336,0,0,0,32.352,22Zm-.336,2.016H30.672V22.672h1.344Z" transform="translate(-18.592 -13.28)" fill="#6d007d"/>
      <path id="Path_100150" data-name="Path 100150" d="M41.336,24.688h2.016a.336.336,0,0,0,.336-.336V22.336A.336.336,0,0,0,43.352,22H41.336a.336.336,0,0,0-.336.336v2.016A.336.336,0,0,0,41.336,24.688Zm.336-2.016h1.344v1.344H41.672Z" transform="translate(-25.896 -13.28)" fill="#6d007d"/>
      <path id="Path_100151" data-name="Path 100151" d="M10.352,33H8.336A.336.336,0,0,0,8,33.336v2.016a.336.336,0,0,0,.336.336h2.016a.336.336,0,0,0,.336-.336V33.336A.336.336,0,0,0,10.352,33Zm-.336,2.016H8.672V33.672h1.344Z" transform="translate(-3.984 -20.584)" fill="#6d007d"/>
      <path id="Path_100152" data-name="Path 100152" d="M21.352,33H19.336a.336.336,0,0,0-.336.336v2.016a.336.336,0,0,0,.336.336h2.016a.336.336,0,0,0,.336-.336V33.336A.336.336,0,0,0,21.352,33Zm-.336,2.016H19.672V33.672h1.344Z" transform="translate(-11.288 -20.584)" fill="#6d007d"/>
      <path id="Path_100153" data-name="Path 100153" d="M32.352,33H30.336a.336.336,0,0,0-.336.336v2.016a.336.336,0,0,0,.336.336h2.016a.336.336,0,0,0,.336-.336V33.336A.336.336,0,0,0,32.352,33Zm-.336,2.016H30.672V33.672h1.344Z" transform="translate(-18.592 -20.584)" fill="#6d007d"/>
      <path id="Path_100154" data-name="Path 100154" d="M10.352,44H8.336A.336.336,0,0,0,8,44.336v2.016a.336.336,0,0,0,.336.336h2.016a.336.336,0,0,0,.336-.336V44.336A.336.336,0,0,0,10.352,44Zm-.336,2.016H8.672V44.672h1.344Z" transform="translate(-3.984 -27.888)" fill="#6d007d"/>
      <path id="Path_100155" data-name="Path 100155" d="M21.352,44H19.336a.336.336,0,0,0-.336.336v2.016a.336.336,0,0,0,.336.336h2.016a.336.336,0,0,0,.336-.336V44.336A.336.336,0,0,0,21.352,44Zm-.336,2.016H19.672V44.672h1.344Z" transform="translate(-11.288 -27.888)" fill="#6d007d"/>
      <path id="Path_100156" data-name="Path 100156" d="M32.352,44H30.336a.336.336,0,0,0-.336.336v2.016a.336.336,0,0,0,.336.336h2.016a.336.336,0,0,0,.336-.336V44.336A.336.336,0,0,0,32.352,44Zm-.336,2.016H30.672V44.672h1.344Z" transform="translate(-18.592 -27.888)" fill="#6d007d"/>
    </g>
    <g id="Group_20085" data-name="Group 20085" transform="translate(317.334 108.692)">
      <path id="Path_100157" data-name="Path 100157" d="M3.944,12.034a.927.927,0,0,1-.924-.924A8.317,8.317,0,0,1,18.54,6.95a.926.926,0,0,1-1.6.934A6.469,6.469,0,0,0,4.869,11.119a.927.927,0,0,1-.924.924Z" transform="translate(-0.155)" fill="#fdb11e"/>
      <path id="Path_100158" data-name="Path 100158" d="M11.363,20.454a8.273,8.273,0,0,1-7.441-4.6.924.924,0,1,1,1.655-.823,6.473,6.473,0,0,0,12.266-2.884.924.924,0,0,1,1.849,0,8.332,8.332,0,0,1-8.319,8.319Z" transform="translate(-0.216 -0.638)" fill="#fdb11e"/>
      <path id="Path_100159" data-name="Path 100159" d="M3.863,12.852h-.12a.944.944,0,0,1-.619-.351L1.164,9.968A.923.923,0,1,1,2.625,8.84l1.387,1.8,1.8-1.4a.923.923,0,0,1,1.128,1.461l-2.533,1.96a.907.907,0,0,1-.564.194Z" transform="translate(0 -0.43)" fill="#fdb11e"/>
      <path id="Path_100160" data-name="Path 100160" d="M21.578,15.172a.9.9,0,0,1-.73-.361l-1.387-1.8-1.8,1.4a.923.923,0,1,1-1.128-1.461l2.533-1.96a.944.944,0,0,1,.684-.185.9.9,0,0,1,.61.351l1.96,2.533a.916.916,0,0,1-.166,1.294.927.927,0,0,1-.564.194Z" transform="translate(-1.15 -0.605)" fill="#fdb11e"/>
    </g>
    <g id="Icon_ionic-ios-rocket" data-name="Icon ionic-ios-rocket" transform="translate(88.212 295.219)">
      <path id="Path_53" data-name="Path 53" d="M20.849,3.61a.186.186,0,0,0-.139-.144c-2.3-.562-7.607,1.44-10.483,4.317a12.433,12.433,0,0,0-1.4,1.651,5.2,5.2,0,0,0-2.53.317c-2.133.938-2.754,3.387-2.927,4.439a.378.378,0,0,0,.414.439l3.425-.376a7.615,7.615,0,0,0,.046.773.767.767,0,0,0,.224.469l1.326,1.326a.767.767,0,0,0,.469.224,7.6,7.6,0,0,0,.769.046l-.376,3.421a.378.378,0,0,0,.439.414c1.052-.169,3.506-.79,4.439-2.923a5.226,5.226,0,0,0,.321-2.522,12.453,12.453,0,0,0,1.656-1.4C19.413,11.213,21.4,6.022,20.849,3.61Z" transform="translate(-3.366 -3.372)" fill="none" stroke="#ef1855" stroke-width="1.5"/>
      <path id="Path_99861" data-name="Path 99861" d="M28.633,16.071a1.8,1.8,0,1,1,2.551,0A1.8,1.8,0,0,1,28.633,16.071Z" transform="translate(-18.043 -9.079)" fill="none" stroke="#ef1855" stroke-width="1.5"/>
      <path id="Path_54" data-name="Path 54" d="M8.216,24.62h0a1,1,0,0,1-.522.211.709.709,0,0,1-.817-.817.98.98,0,0,1,.208-.519l0,0a.088.088,0,0,0-.074-.15,1.211,1.211,0,0,0-.709.345c-.474.474-.519,2.234-.519,2.234s1.763-.045,2.237-.519a1.2,1.2,0,0,0,.345-.709A.09.09,0,0,0,8.216,24.62Z" transform="translate(-4.88 -9.252)" fill="none" stroke="#ef1855" stroke-width="1.5"/>
    </g>
    <g id="Group_20087" data-name="Group 20087" transform="translate(308.266 284.353)">
      <path id="Path_100161" data-name="Path 100161" d="M25.29,20.179,24.677,20a.476.476,0,0,1-.306-.23.51.51,0,0,1-.051-.383.5.5,0,0,1,.613-.357l.817.23a.331.331,0,0,0,.179-.638l-.689-.179v-.511a.332.332,0,1,0-.664,0v.46a1.2,1.2,0,0,0-.894.842,1.107,1.107,0,0,0,.128.894,1.09,1.09,0,0,0,.715.536l.638.179a.549.549,0,0,1,.306.23.51.51,0,0,1,.051.383.549.549,0,0,1-.23.306.51.51,0,0,1-.383.051l-.817-.2a.331.331,0,0,0-.179.638l.689.179v.511a.332.332,0,1,0,.664,0v-.46a1.476,1.476,0,0,0,.357-.128,1.09,1.09,0,0,0,.536-.715,1.107,1.107,0,0,0-.128-.894A1.154,1.154,0,0,0,25.29,20.179Z" transform="translate(-10.158 -5.66)" fill="#42024b"/>
      <path id="Path_100162" data-name="Path 100162" d="M24.313,67.7H22.3a1,1,0,0,0-1,1v3.727a1,1,0,0,0,1,1h2.017a1,1,0,0,0,1-1V68.7A1.014,1.014,0,0,0,24.313,67.7Zm.306,4.7a.338.338,0,0,1-.332.332H22.27a.338.338,0,0,1-.332-.332V68.7a.338.338,0,0,1,.332-.332h2.017a.338.338,0,0,1,.332.332Z" transform="translate(-8.415 -42.969)" fill="#42024b"/>
      <path id="Path_100163" data-name="Path 100163" d="M47.313,50.9H45.3a1,1,0,0,0-1,1v7.991a1,1,0,0,0,1,1h2.017a1,1,0,0,0,1-1V51.9A1.032,1.032,0,0,0,47.313,50.9Zm.332,8.987a.338.338,0,0,1-.332.332H45.3a.338.338,0,0,1-.332-.332V51.9a.338.338,0,0,1,.332-.332h2.017a.338.338,0,0,1,.332.332Z" transform="translate(-25.543 -30.458)" fill="#42024b"/>
      <path id="Path_100164" data-name="Path 100164" d="M80.632,52a.338.338,0,0,0-.332.332v.945a.332.332,0,1,0,.664,0v-.945A.322.322,0,0,0,80.632,52Z" transform="translate(-52.352 -31.277)" fill="#42024b"/>
      <path id="Path_100165" data-name="Path 100165" d="M67.662,15.361l-2.808-4.876A.985.985,0,0,0,64.011,10a1.027,1.027,0,0,0-.868.485l-2.834,4.876a.983.983,0,0,0,.868,1.481h.817V29.429a1,1,0,0,0,1,1h2.017a1,1,0,0,0,1-1V23.3a.332.332,0,0,0-.664,0v6.127a.338.338,0,0,1-.332.332H62.99a.338.338,0,0,1-.332-.332V16.51a.338.338,0,0,0-.332-.332H61.177a.348.348,0,0,1-.281-.153.362.362,0,0,1,0-.332L63.7,10.817a.29.29,0,0,1,.281-.153.349.349,0,0,1,.281.153l2.808,4.876a.362.362,0,0,1,0,.332.294.294,0,0,1-.281.153H65.645a.338.338,0,0,0-.332.332v3.217a.332.332,0,1,0,.664,0V16.842h.817a.983.983,0,0,0,.868-1.481Z" transform="translate(-37.365)" fill="#42024b"/>
      <path id="Path_100166" data-name="Path 100166" d="M14.749,10A4.749,4.749,0,1,0,19.5,14.749,4.74,4.74,0,0,0,14.749,10Zm0,8.808a4.085,4.085,0,1,1,4.085-4.085A4.1,4.1,0,0,1,14.749,18.808Z" fill="#42024b"/>
    </g>
  </g>
</svg>
