<svg xmlns="http://www.w3.org/2000/svg" width="120" height="120" viewBox="0 0 120 120">
  <g id="company" transform="translate(-727.448 -6027.448)">
    <g id="Ellipse_1851" data-name="Ellipse 1851" transform="translate(727.448 6027.448)" fill="#f8f8f8" stroke="#ffe2ea" stroke-width="2">
      <circle cx="60" cy="60" r="60" stroke="none"/>
      <circle cx="60" cy="60" r="59" fill="none"/>
    </g>
    <g id="Group_20102" data-name="Group 20102" transform="translate(754.486 6051.128)">
      <path id="Path_100171" data-name="Path 100171" d="M61.056,60.327c-.527.006-.469-.019-1.171.03v-16.4A3.188,3.188,0,0,0,56.7,40.769H39.395V16.057L46.986,23.4a2.225,2.225,0,0,1,.675,1.592V37.093a.99.99,0,0,0,1.979,0V24.987a4.215,4.215,0,0,0-1.279-3.015l-9.269-8.959a1.01,1.01,0,0,0-1-.227L21.462,18.375V14.522a3.108,3.108,0,0,0-3.255-3.047,3.051,3.051,0,0,0-3.048,3.047v5.971l-4.35,1.462a4.189,4.189,0,0,0-2.857,3.974v34.4A8.171,8.171,0,0,0,0,68.49v5.032A2.48,2.48,0,0,0,2.477,76h62.6a2.48,2.48,0,0,0,2.477-2.477v-6.7a6.506,6.506,0,0,0-6.5-6.5Zm0,1.979a4.525,4.525,0,0,1,4.52,4.52v1.038h-9.6V66.826A4.611,4.611,0,0,1,61.056,62.306Zm-3.15-18.353V60.867A6.508,6.508,0,0,0,54,66.826v1.038h-14.6V42.748H56.7a1.206,1.206,0,0,1,1.2,1.2ZM17.138,14.522a1.069,1.069,0,0,1,1.069-1.067,1.157,1.157,0,0,1,1.276,1.067V19.04l-2.345.788ZM7.952,62.309v5.555H2.011A6.194,6.194,0,0,1,7.952,62.309ZM1.979,73.522V69.843H7.952V74.02H2.478a.5.5,0,0,1-.5-.5ZM9.931,25.931a2.212,2.212,0,0,1,1.508-2.1L37.416,15.1v5.392L15.833,27.747a.99.99,0,1,0,.631,1.876l20.952-7.043v5.034L15.833,34.87a.99.99,0,1,0,.631,1.876L37.416,29.7v5.034L15.833,41.992a.99.99,0,1,0,.631,1.876l20.952-7.043v4.929s0,0,0,0v.1L15.833,49.115a.99.99,0,1,0,.631,1.876l20.952-7.043v5.034l-13.476,4.53a.99.99,0,1,0,.631,1.876L37.416,51.07V74.02H28.867V63.737a2.137,2.137,0,0,0-2.711-2.058l-9.211,2.571A2.45,2.45,0,0,0,15.159,66.6V74.02H9.931ZM17.139,66.6a.464.464,0,0,1,.338-.446l3.546-.99V74.02H17.138V66.6ZM23,74.02V64.615l3.685-1.029a.157.157,0,0,1,.2.152V74.02Zm16.392,0V69.843H54V74.02Zm26.182-.5a.5.5,0,0,1-.5.5h-9.1V69.843h9.6Z" transform="translate(0 -11.471)" fill="#5a5a5a"/>
      <path id="Path_100172" data-name="Path 100172" d="M115.878,344.211a.985.985,0,0,0,.315-.052l3.674-1.235a.99.99,0,0,0-.631-1.876l-3.674,1.235a.99.99,0,0,0,.315,1.928Z" transform="translate(-99.729 -297.517)" fill="#5a5a5a"/>
      <path id="Path_100173" data-name="Path 100173" d="M320.438,272.749h9.7a1.671,1.671,0,0,0,1.669-1.669V268.7a1.671,1.671,0,0,0-1.669-1.669h-9.7a1.671,1.671,0,0,0-1.669,1.669v2.382A1.671,1.671,0,0,0,320.438,272.749Zm.31-3.741h9.084v1.761h-9.084Z" transform="translate(-276.709 -233.309)" fill="#ef1855"/>
      <path id="Path_100174" data-name="Path 100174" d="M320.438,329.779h9.7a1.671,1.671,0,0,0,1.669-1.669v-2.382a1.671,1.671,0,0,0-1.669-1.669h-9.7a1.671,1.671,0,0,0-1.669,1.669v2.382A1.671,1.671,0,0,0,320.438,329.779Zm.31-3.741h9.084V327.8h-9.084Z" transform="translate(-276.709 -282.815)" fill="#ef1855"/>
      <path id="Path_100175" data-name="Path 100175" d="M320.438,387.392h3.21a1.671,1.671,0,0,0,1.669-1.669v-2.382a1.671,1.671,0,0,0-1.669-1.669h-3.21a1.671,1.671,0,0,0-1.669,1.669v2.382A1.671,1.671,0,0,0,320.438,387.392Zm.31-3.741h2.589v1.761h-2.589Z" transform="translate(-276.709 -332.826)" fill="#ef1855"/>
    </g>
  </g>
</svg>
