<svg xmlns="http://www.w3.org/2000/svg" width="120" height="120" viewBox="0 0 120 120">
  <g id="individuals" transform="translate(-727.448 -6027.448)">
    <g id="Ellipse_1851" data-name="Ellipse 1851" transform="translate(727.448 6027.448)" fill="#f8f8f8" stroke="#ffe2ea" stroke-width="2">
      <circle cx="60" cy="60" r="60" stroke="none"/>
      <circle cx="60" cy="60" r="59" fill="none"/>
    </g>
    <g id="Group_20109" data-name="Group 20109" transform="translate(747.798 6042.507)">
      <path id="Path_100177" data-name="Path 100177" d="M131.287,373.982a.83.83,0,0,0-1.09.441,9.451,9.451,0,0,0-.565,5.682.828.828,0,0,0,.814.662.671.671,0,0,0,.165-.014.85.85,0,0,0,.648-.979,7.866,7.866,0,0,1,.469-4.7.837.837,0,0,0-.441-1.089Z" transform="translate(-107.269 -312.865)" fill="#ef1855"/>
      <g id="Group_20107" data-name="Group 20107" transform="translate(17.978 27.674)">
        <path id="Path_100178" data-name="Path 100178" d="M102.2,336.4v0Z" transform="translate(-101.772 -308.197)" fill="#ef1855"/>
        <path id="Path_100179" data-name="Path 100179" d="M102.2,336.237C102.214,336.209,102.214,336.2,102.2,336.237Z" transform="translate(-101.772 -308.034)" fill="#ef1855"/>
        <path id="Path_100180" data-name="Path 100180" d="M127.3,160.213l-.083-.207a6.08,6.08,0,0,0-3.6-3.255l-.786-.276a28.933,28.933,0,0,0-5.282-1.283v-1.462a7.5,7.5,0,0,0,2.993-4.923,2.454,2.454,0,0,0,1.724-2.951,2.073,2.073,0,0,0-1.42-1.476l.11-1.572a7.5,7.5,0,0,0-1.614-5.213,6.9,6.9,0,0,0-1.186-1.186,4.759,4.759,0,0,0-9.5-.055,7.6,7.6,0,0,0-2.841,6.44l.11,1.586a2.025,2.025,0,0,0-1.42,1.476,2.437,2.437,0,0,0,.648,2.317,2.518,2.518,0,0,0,1.1.621,7.081,7.081,0,0,0,3.034,4.923v1.462a29.359,29.359,0,0,0-5.323,1.283l-.8.276a6.372,6.372,0,0,0-3.641,3.365,6.843,6.843,0,0,0-.428,2.345v9.323h1.655v-9.323a4.2,4.2,0,0,1,2.951-4.124l.786-.276q1.345-.455,2.731-.786l.676,5.158a.825.825,0,0,0,.924.717.661.661,0,0,0,.234-.069l1.7-.772.345,1.434-1.42,7.861,1.627.29,1.324-7.351,1.655.028,1.021,7.282,1.641-.234-1.09-7.806.428-1.407,1.448.662a.818.818,0,0,0,1.089-.414,1.166,1.166,0,0,0,.069-.234l.676-5.158q1.386.331,2.731.786l.786.276a4.424,4.424,0,0,1,2.62,2.358.952.952,0,0,1,.055.138,3.1,3.1,0,0,1,.11.331l1.586-.469a2.51,2.51,0,0,0-.152-.455Zm-16.094-25.721a3.056,3.056,0,0,1,2.193-.924,3.135,3.135,0,0,1,2.717,1.627,7.526,7.526,0,0,0-5.5.124A3.494,3.494,0,0,1,111.209,134.493Zm4.675,2.441a7.052,7.052,0,0,1,2.165,1.7A5.854,5.854,0,0,1,119.3,142.7l-.1,1.393a3.126,3.126,0,0,1-1.462-1.889.811.811,0,0,0-.759-.621c-4.661-.29-5.641-1.379-6.565-4.358C111.471,136.713,113.829,135.817,115.884,136.934Zm-6.84,1.324a10.256,10.256,0,0,0,.786,1.779,7.753,7.753,0,0,0-2.386,2.055A6.109,6.109,0,0,1,109.043,138.258Zm-1.227,9.778a.846.846,0,0,0-.827-.814h-.124a.792.792,0,0,1-.8-.759,1.065,1.065,0,0,1,.028-.207.4.4,0,0,1,.5-.29l.207.014a.833.833,0,0,0,.607-.248.7.7,0,0,0,.193-.359,6.423,6.423,0,0,1,3.282-4.013c1.131,1.048,2.786,1.614,5.461,1.834a4.421,4.421,0,0,0,2.882,2.662,3.632,3.632,0,0,0,.938.11.422.422,0,0,1,.5.3.749.749,0,0,1-.1.593.8.8,0,0,1-.648.359h-.138a.846.846,0,0,0-.827.814,5.568,5.568,0,0,1-11.129,0Zm8.1,6.578v1.172a2.037,2.037,0,0,1-.634,1.462l-1.889,1.793-1.848-1.793a2,2,0,0,1-.593-1.462V154.6a7.052,7.052,0,0,0,2.193.441h.276A6.991,6.991,0,0,0,115.911,154.614Zm-6.523,6.5-.552-4.165.552-.083a3.706,3.706,0,0,0,.979,1.6l1.558,1.5Zm5.006,1.82-1.807-.028-.317-1.214,1.158-.565,1.31.565Zm2.993-1.82-2.551-1.158,1.572-1.5a3.706,3.706,0,0,0,.979-1.6l.552.083Z" transform="translate(-99.1 -131.9)" fill="#ef1855"/>
      </g>
      <path id="Path_100181" data-name="Path 100181" d="M259.736,373.982a.837.837,0,0,0-.441,1.089,7.767,7.767,0,0,1,.469,4.675.825.825,0,0,0,1.614.345v-.014a9.565,9.565,0,0,0-.565-5.654A.815.815,0,0,0,259.736,373.982Z" transform="translate(-219.168 -312.865)" fill="#ef1855"/>
      <g id="Group_20108" data-name="Group 20108" transform="translate(5 11)">
        <path id="Path_100182" data-name="Path 100182" d="M344.987,344.555l-10.109,9.861-5.351-5.227a.829.829,0,0,0-1.159,1.186l5.93,5.792a.824.824,0,0,0,1.158,0l10.688-10.426a.828.828,0,0,0,.014-1.172A.841.841,0,0,0,344.987,344.555Z" transform="translate(-283.561 -298.355)" fill="#ef1855"/>
        <path id="Path_100183" data-name="Path 100183" d="M73.391,57.945a15.561,15.561,0,0,0-13.777-10.44V23.026a5.824,5.824,0,0,0-5.792-5.82H51.476V15.4A4.373,4.373,0,0,0,47.132,11h-.414a4.382,4.382,0,0,0-4.344,4.4v1.807H22.239V15.4A4.394,4.394,0,0,0,17.881,11h-.414a4.37,4.37,0,0,0-4.33,4.4v1.807H10.779A5.821,5.821,0,0,0,5,23.026V62.3A5.8,5.8,0,0,0,10.779,68.1H44.015a15.54,15.54,0,0,0,29.375-10.15ZM44.029,15.372a2.713,2.713,0,0,1,2.717-2.717H47.1a2.713,2.713,0,0,1,2.717,2.717V18.9A2.713,2.713,0,0,1,47.1,21.619h-.359A2.713,2.713,0,0,1,44.029,18.9Zm-29.237,0a2.713,2.713,0,0,1,2.717-2.717h.359a2.713,2.713,0,0,1,2.717,2.717V18.9a2.713,2.713,0,0,1-2.717,2.717h-.359A2.713,2.713,0,0,1,14.792,18.9ZM6.655,23.026a4.17,4.17,0,0,1,4.124-4.165H13.1a4.376,4.376,0,0,0,4.344,4.413h.441a4.376,4.376,0,0,0,4.372-4.386v-.028H42.347a4.376,4.376,0,0,0,4.344,4.413h.441A4.376,4.376,0,0,0,51.5,18.889v-.028h2.317a4.173,4.173,0,0,1,4.137,4.165v2.869H6.655ZM43.2,63.875a14.527,14.527,0,0,0,.345,2.565H10.779A4.138,4.138,0,0,1,6.655,62.3V27.549h51.3V47.491A15.575,15.575,0,0,0,43.2,63.875ZM58.7,76.894A13.874,13.874,0,1,1,72.577,63.007,13.876,13.876,0,0,1,58.7,76.894Z" transform="translate(-5 -11)" fill="#5a5a5a"/>
        <path id="Path_100184" data-name="Path 100184" d="M37.827,163.7a.83.83,0,0,0-.827.827v.924a.827.827,0,0,0,1.655,0v-.924A.83.83,0,0,0,37.827,163.7Z" transform="translate(-32.587 -142.641)" fill="#5a5a5a"/>
        <path id="Path_100185" data-name="Path 100185" d="M37.827,194.9a.83.83,0,0,0-.827.827V205a.827.827,0,0,0,1.655,0v-9.268A.83.83,0,0,0,37.827,194.9Z" transform="translate(-32.587 -169.538)" fill="#5a5a5a"/>
      </g>
    </g>
  </g>
</svg>
