<svg xmlns="http://www.w3.org/2000/svg" width="120" height="120" viewBox="0 0 120 120">
  <g id="prospects" transform="translate(-727.448 -6027.448)">
    <g id="Ellipse_1851" data-name="Ellipse 1851" transform="translate(727.448 6027.448)" fill="#f8f8f8" stroke="#ffe2ea" stroke-width="2">
      <circle cx="60" cy="60" r="60" stroke="none"/>
      <circle cx="60" cy="60" r="59" fill="none"/>
    </g>
    <g id="Group_20110" data-name="Group 20110" transform="translate(755.428 6055.106)">
      <path id="Path_100186" data-name="Path 100186" d="M125.449,144.23a18.781,18.781,0,1,1,18.781-18.781A18.781,18.781,0,0,1,125.449,144.23Zm0-34.879a16.1,16.1,0,1,0,16.1,16.1A16.1,16.1,0,0,0,125.449,109.351Zm0,0" transform="translate(-93.253 -93.253)" fill="#5a5a5a"/>
      <path id="Path_100187" data-name="Path 100187" d="M375.9,381.45a5.53,5.53,0,0,1-3.921-1.622l-8.919-8.922a1.341,1.341,0,0,1,0-1.9l5.947-5.947a1.341,1.341,0,0,1,1.9,0l8.919,8.919a5.546,5.546,0,0,1-3.922,9.468Zm-10-11.49,7.971,7.971a2.864,2.864,0,0,0,4.05-4.05l-7.971-7.971Zm0,0" transform="translate(-317.059 -317.059)" fill="#5a5a5a"/>
      <path id="Path_100188" data-name="Path 100188" d="M397.313,403.26l5.947-5.947,1.9,1.9-5.947,5.947Zm0,0" transform="translate(-347.345 -347.345)" fill="#5a5a5a"/>
      <path id="Path_100189" data-name="Path 100189" d="M344.465,346.358l1.9-1.9,5.366,5.366-1.9,1.9Zm0,0" transform="translate(-301.143 -301.14)" fill="#5a5a5a"/>
      <path id="Path_100190" data-name="Path 100190" d="M40.245,10.732H37.562V4.024A1.341,1.341,0,0,0,36.22,2.683H4.024A1.341,1.341,0,0,0,2.683,4.024V8.049h32.2v2.683H1.342A1.342,1.342,0,0,1,0,9.391V4.024A4.025,4.025,0,0,1,4.024,0h32.2a4.025,4.025,0,0,1,4.024,4.024Zm0,0" fill="#5a5a5a"/>
      <path id="Path_100191" data-name="Path 100191" d="M36.22,157.645H4.024A4.024,4.024,0,0,1,0,153.62V106.668H2.683V153.62a1.342,1.342,0,0,0,1.342,1.342h32.2a1.342,1.342,0,0,0,1.342-1.342V149.6H5.366v-2.683H38.9a1.342,1.342,0,0,1,1.342,1.342v5.366A4.024,4.024,0,0,1,36.22,157.645Zm0,0" transform="translate(0 -93.253)" fill="#5a5a5a"/>
      <path id="Path_100192" data-name="Path 100192" d="M49.375,358.708H46.692a4.024,4.024,0,0,1-4.024-4.024V352h2.683v2.683a1.341,1.341,0,0,0,1.342,1.341h2.683Zm0,0" transform="translate(-37.302 -307.731)" fill="#ef1855"/>
      <path id="Path_100193" data-name="Path 100193" d="M117.332,384h2.683v2.683h-2.683Zm0,0" transform="translate(-102.576 -335.706)" fill="#ef1855"/>
      <path id="Path_100194" data-name="Path 100194" d="M298.668,426.668h2.683v5.366h-2.683Zm0,0" transform="translate(-261.106 -373.008)" fill="#5a5a5a"/>
      <path id="Path_100195" data-name="Path 100195" d="M209.375,162.751a6.707,6.707,0,1,1,6.707-6.707A6.707,6.707,0,0,1,209.375,162.751Zm0-10.732a4.024,4.024,0,1,0,4.024,4.024A4.025,4.025,0,0,0,209.375,152.019Zm0,0" transform="translate(-177.18 -130.555)" fill="#ef1855"/>
      <path id="Path_100196" data-name="Path 100196" d="M198.772,248.083h-16.1a1.342,1.342,0,0,1-1.342-1.342v-2.683a9.391,9.391,0,1,1,18.781,0v2.683A1.342,1.342,0,0,1,198.772,248.083ZM184.015,245.4H197.43v-1.341a6.707,6.707,0,1,0-13.415,0Zm0,0" transform="translate(-158.527 -205.155)" fill="#ef1855"/>
    </g>
  </g>
</svg>
