<svg xmlns="http://www.w3.org/2000/svg" xmlns:xlink="http://www.w3.org/1999/xlink" width="50.767" height="69.25" viewBox="0 0 50.767 69.25">
  <defs>
    <clipPath id="clip-path">
      <path id="Path_99928" data-name="Path 99928" d="M0,0,38.848,1.331l2.484,62.236L2.484,62.236Z" fill="none"/>
    </clipPath>
  </defs>
  <g id="bnr1-5" transform="translate(9.944) rotate(9)" clip-path="url(#clip-path)">
    <path id="Path_67" data-name="Path 67" d="M1.546,4.984a11.887,11.887,0,0,0,3.671,14.6c4.535,3.275,10.231,2.028,12.7-2.781s.761-11.3-3.788-14.576S4.014.176,1.542,4.984" transform="translate(20.238 0.606)" fill="#e50045"/>
    <path id="Path_68" data-name="Path 68" d="M.979,3.192a7.727,7.727,0,0,0,2.408,9.427,5.327,5.327,0,0,0,8.175-1.785A7.747,7.747,0,0,0,9.147,1.4,5.41,5.41,0,0,0,.979,3.19" transform="translate(8.018 28.098)" fill="#e50045"/>
    <path id="Path_69" data-name="Path 69" d="M.683,2.229A5.367,5.367,0,0,0,2.356,8.783,3.752,3.752,0,0,0,8.107,7.592,5.4,5.4,0,0,0,6.359.99,3.727,3.727,0,0,0,.681,2.231" transform="translate(2.113 52.754)" fill="#e50045"/>
  </g>
</svg>
