<svg id="capsul" xmlns="http://www.w3.org/2000/svg" xmlns:xlink="http://www.w3.org/1999/xlink" width="46.514" height="71.579" viewBox="0 0 46.514 71.579">
  <defs>
    <clipPath id="clip-path">
      <rect id="Rectangle_3793" data-name="Rectangle 3793" width="46.514" height="71.579" fill="none"/>
    </clipPath>
  </defs>
  <rect id="Rectangle_3789" data-name="Rectangle 3789" width="1.131" height="1.131" transform="translate(13.418 38.984)" fill="#fdb11e"/>
  <rect id="Rectangle_3790" data-name="Rectangle 3790" width="1.131" height="1.131" transform="translate(13.418 45.285)" fill="#fdb11e"/>
  <rect id="Rectangle_3791" data-name="Rectangle 3791" width="1.131" height="1.131" transform="translate(22.87 42.134)" fill="#fdb11e"/>
  <rect id="Rectangle_3792" data-name="Rectangle 3792" width="1.131" height="1.131" transform="translate(3.967 42.134)" fill="#fdb11e"/>
  <g id="Group_12448" data-name="Group 12448">
    <g id="Group_12447" data-name="Group 12447" clip-path="url(#clip-path)">
      <path id="Path_70" data-name="Path 70" d="M65.137,291.63l-.975.295q-.84.593-1.682,1.183a.627.627,0,0,0-1.06.214c-1.337-.06-2.913-.119-4.212-.179l-1.373.384,1.373.384c1.288-.06,2.878-.118,4.212-.178a.628.628,0,0,0,1.221-.206.6.6,0,0,0-.007-.092l1.823-1.043Z" transform="translate(-48.029 -250.857)" fill="#212020"/>
      <path id="Path_71" data-name="Path 71" d="M0,303.668V320.75c0,6.661,6.251,12.042,13.984,12.042s13.984-5.381,13.984-12.042V303.668c0,3.258-6.261,5.9-13.984,5.9S0,306.926,0,303.668" transform="translate(0 -261.212)" fill="#e30044"/>
      <path id="Path_72" data-name="Path 72" d="M15.741,257.843c-7.565,0-13.7,2.587-13.7,5.778s6.133,5.778,13.7,5.778c-6.478,0-11.729-2.215-11.728-4.948S9.264,259.5,15.741,259.5s11.728,2.215,11.728,4.947c0,2.6-4.759,4.751-10.9,4.935,7.228-.185,12.867-2.711,12.868-5.766,0-3.191-6.133-5.778-13.7-5.778" transform="translate(-1.757 -221.794)" fill="#e30044"/>
      <path id="Path_73" data-name="Path 73" d="M24.9,353.587a.967.967,0,0,1,.969.97v13.249a.969.969,0,1,1-1.939,0V354.557a.967.967,0,0,1,.969-.97" transform="translate(-20.586 -304.152)" fill="#fff"/>
      <path id="Path_74" data-name="Path 74" d="M85.728,19.152,95.19,4.93c3.69-5.546,11.875-6.563,18.313-2.28s8.662,12.226,4.973,17.772l-9.462,14.222c1.8-2.713-1.945-8.379-8.375-12.657s-13.106-5.547-14.91-2.834" transform="translate(-73.742 -0.001)" fill="#fdb11e"/>
      <path id="Path_75" data-name="Path 75" d="M90.415,145.652c-6.3-4.191-9.972-9.741-8.2-12.4s8.307-1.414,14.605,2.776c-5.393-3.588-10.992-4.652-12.506-2.377s1.632,7.028,7.025,10.616,10.992,4.652,12.505,2.377c1.438-2.162-1.33-6.592-6.34-10.146,5.915,4.158,9.211,9.384,7.52,11.928-1.767,2.658-8.307,1.414-14.606-2.777" transform="translate(-70.336 -113.421)" fill="#fdb11e"/>
      <path id="Path_76" data-name="Path 76" d="M260.067,94.625a.967.967,0,0,1,.279,1.342l-7.27,11.076a.969.969,0,0,1-1.621-1.064l7.27-11.076a.967.967,0,0,1,1.342-.278" transform="translate(-216.161 -81.258)" fill="#fff"/>
    </g>
  </g>
</svg>
