<svg xmlns="http://www.w3.org/2000/svg" xmlns:xlink="http://www.w3.org/1999/xlink" width="400" height="994.82" viewBox="0 0 400 994.82">
  <defs>
    <linearGradient id="linear-gradient" x1="0.5" x2="0.5" y2="1.177" gradientUnits="objectBoundingBox">
      <stop offset="0" stop-color="#6d007d"/>
      <stop offset="1" stop-color="#ef1855"/>
    </linearGradient>
    <clipPath id="clip-path">
      <path id="Path_100218" data-name="Path 100218" d="M-2997,5145.466s15.738,4.991,27.771,23.908c-.16-.485,9.627-15.522,23.264-4.851-.16-.162,5.821,3.448,18.977,16.868.321.324,4.452,6.581,13.112,3.02s3.851-18.109,21.981-16.815c-.16-.324,4.448-.162,15.519,5.012.16-.162,5.195,4.894,11.757,0s7.7-8.408,16.686-2.264c-.321-.162,7.623,4.167,12.224-4.042s29.794-17.189,47.41-8.569,24.118,8.569,24.118,8.569,14.259,2.674,20.858-4.527,14.966-6.525,21.384,2.53c0,.323,7.078,4.6,15.755-3.452s16.554-19.9,39.553-7c-.161-.485,6.229,4.814,11.938-1.974s25.345-15.417,34.912-6.757c0,0,3.209,3.4,2.567,12.611,0,0,13.156-8.569,20.216,1.779V4203.533s-60.769,30.517-127.588,21.809-76.792-27.335-143.853-29.558S-2997,4228.95-2997,4228.95Z" transform="translate(2997 -4195.684)" fill="url(#linear-gradient)"/>
    </clipPath>
    <clipPath id="clip-path-2">
      <rect id="Rectangle_3793" data-name="Rectangle 3793" width="175.458" height="270.005" fill="none"/>
    </clipPath>
  </defs>
  <g id="mobile-slider5-bg" transform="translate(0 -4312.987)">
    <g id="slider5-bg" transform="translate(0 4312.987)">
      <path id="Path_100170" data-name="Path 100170" d="M-2997,5150.466s15.738,4.991,27.771,23.908c-.16-.485,9.627-15.522,23.264-4.851-.16-.162,5.821,3.448,18.977,16.868.321.324,4.452,6.581,13.112,3.02s3.851-18.109,21.981-16.815c-.16-.324,4.448-.162,15.519,5.012.16-.162,5.195,4.894,11.757,0s7.7-8.408,16.686-2.264c-.321-.162,7.623,4.167,12.224-4.042s29.794-17.189,47.41-8.569,24.118,8.569,24.118,8.569,14.259,2.674,20.858-4.527,14.966-6.525,21.384,2.53c0,.323,7.078,4.6,15.755-3.452s16.554-19.9,39.553-7c-.161-.485,6.229,4.814,11.938-1.974s25.345-15.417,34.912-6.757c0,0,3.209,3.4,2.567,12.611,0,0,13.156-8.569,20.216,1.779V4203.533s-60.769,30.517-127.588,21.809-76.792-27.335-143.853-29.558S-2997,4228.95-2997,4228.95Z" transform="translate(2997 -4195.684)" fill="url(#linear-gradient)"/>
      <g id="slider5-bg-2" data-name="slider5-bg" clip-path="url(#clip-path)">
        <path id="Path_100219" data-name="Path 100219" d="M168.306,79.213C147.321,31.18,98.639-.026,44.732,0H34.149C15.289,0,0,14.79,0,33.034s15.271,33.041,34.132,33.05H44.08c36.375,0,66.339,28.287,66.441,63.475s-29.445,63.849-65.789,63.849H34.149C15.289,193.408,0,208.2,0,226.442s15.289,33.033,34.149,33.033H44.718c53.9.008,102.573-31.183,123.588-79.2a126.029,126.029,0,0,0,0-101.066" transform="translate(-45.612 694.985)" fill="#72017b" opacity="0.27"/>
        <g id="Group_20136" data-name="Group 20136" transform="translate(264.569 23.992)" opacity="0.15">
          <g id="Group_12448" data-name="Group 12448">
            <g id="Group_12447" data-name="Group 12447" clip-path="url(#clip-path-2)">
              <path id="Path_70" data-name="Path 70" d="M90.925,291.63l-3.678,1.112q-3.168,2.237-6.344,4.461a2.364,2.364,0,0,0-4,.809c-5.044-.227-10.989-.448-15.889-.675l-5.179,1.447,5.181,1.448c4.858-.226,10.854-.446,15.889-.67a2.368,2.368,0,0,0,4.606-.778,2.261,2.261,0,0,0-.028-.348L88.36,294.5Z" transform="translate(-26.389 -137.831)" fill="#212020"/>
              <path id="Path_71" data-name="Path 71" d="M0,303.668V368.1c0,25.126,23.58,45.424,52.749,45.424s52.75-20.3,52.75-45.424V303.668c0,12.289-23.617,22.251-52.75,22.251S0,315.957,0,303.668" transform="translate(0 -143.521)" fill="#e30044"/>
              <path id="Path_72" data-name="Path 72" d="M53.714,257.843c-28.537,0-51.671,9.759-51.671,21.8s23.134,21.8,51.671,21.8c-24.434,0-44.241-8.356-44.241-18.663s19.808-18.662,44.241-18.662,44.241,8.355,44.241,18.662c0,9.794-17.95,17.922-41.11,18.615,27.264-.7,48.536-10.227,48.541-21.749,0-12.038-23.134-21.8-51.672-21.8" transform="translate(-0.966 -121.863)" fill="#e30044"/>
              <path id="Path_73" data-name="Path 73" d="M27.589,353.587a3.649,3.649,0,0,1,3.657,3.657V407.22a3.657,3.657,0,1,1-7.314,0V357.244a3.648,3.648,0,0,1,3.657-3.657" transform="translate(-11.311 -167.114)" fill="#fff"/>
              <path id="Path_74" data-name="Path 74" d="M85.728,72.241l35.691-53.646c13.917-20.919,44.793-24.758,69.078-8.6s32.674,46.118,18.757,67.037l-35.691,53.647c6.807-10.232-7.338-31.608-31.593-47.744S92.535,62.009,85.728,72.241" transform="translate(-40.517 0)" fill="#fdb11e"/>
              <path id="Path_75" data-name="Path 75" d="M114.388,183.9c-23.76-15.807-37.615-36.746-30.946-46.769s31.334-5.334,55.093,10.473c-20.343-13.535-41.463-17.549-47.172-8.966s6.154,26.509,26.5,40.043,41.462,17.55,47.171,8.968c5.425-8.155-5.017-24.865-23.916-38.271,22.313,15.683,34.746,35.4,28.368,45-6.664,10.025-31.335,5.333-55.094-10.474" transform="translate(-38.645 -62.318)" fill="#fdb11e"/>
              <path id="Path_76" data-name="Path 76" d="M284.385,95.068a3.649,3.649,0,0,1,1.051,5.064l-27.424,41.78A3.657,3.657,0,0,1,251.9,137.9l27.424-41.78a3.649,3.649,0,0,1,5.064-1.051" transform="translate(-118.768 -44.646)" fill="#fff"/>
              <rect id="Rectangle_8280" data-name="Rectangle 8280" width="4.266" height="4.266" transform="translate(50.616 147.053)" fill="#fdb11e"/>
              <rect id="Rectangle_8281" data-name="Rectangle 8281" width="4.266" height="4.266" transform="translate(50.616 170.82)" fill="#fdb11e"/>
              <rect id="Rectangle_8282" data-name="Rectangle 8282" width="4.266" height="4.266" transform="translate(86.269 158.935)" fill="#fdb11e"/>
              <rect id="Rectangle_8283" data-name="Rectangle 8283" width="4.266" height="4.266" transform="translate(14.963 158.935)" fill="#fdb11e"/>
            </g>
          </g>
        </g>
      </g>
    </g>
  </g>
</svg>
