<svg xmlns="http://www.w3.org/2000/svg" width="24.179" height="24.179" viewBox="0 0 24.179 24.179">
  <g id="icn1" transform="translate(-13 -15)">
    <g id="friend_birthday_event" transform="translate(11 15)">
      <path id="Path_99937" data-name="Path 99937" d="M22.552,4.418H21.343V3.209a1.209,1.209,0,0,0-2.418,0V4.418H15.3V3.209a1.209,1.209,0,0,0-2.418,0V4.418H9.254V3.209a1.209,1.209,0,1,0-2.418,0V4.418H5.627A3.631,3.631,0,0,0,2,8.045V22.552a3.631,3.631,0,0,0,3.627,3.627H22.552a3.631,3.631,0,0,0,3.627-3.627V8.045A3.631,3.631,0,0,0,22.552,4.418ZM17.507,24.761H10.672V20.948a.612.612,0,0,1,.6-.6H16.9a.612.612,0,0,1,.6.6Zm7.254-1.209a1.21,1.21,0,0,1-1.209,1.209H18.925V21.948A3.026,3.026,0,0,0,15.9,18.925H12.276a3.026,3.026,0,0,0-3.022,3.022v2.813H4.627a1.21,1.21,0,0,1-1.209-1.209V7.045A1.21,1.21,0,0,1,4.627,5.836H23.552a1.21,1.21,0,0,1,1.209,1.209Z" transform="translate(0 -2)" fill="#ef1855"/>
      <g id="Ellipse_1831" data-name="Ellipse 1831" transform="translate(10 7)" fill="none" stroke="#ef1855" stroke-width="1.5">
        <circle cx="4" cy="4" r="4" stroke="none"/>
        <circle cx="4" cy="4" r="3.25" fill="none"/>
      </g>
    </g>
  </g>
</svg>
