<svg xmlns="http://www.w3.org/2000/svg" width="25.631" height="24.179" viewBox="0 0 25.631 24.179">
  <g id="icn12" transform="translate(0 -14.507)">
    <path id="Exclusion_6" data-name="Exclusion 6" d="M12.816,24.179a.747.747,0,0,1-.43-.135,23.7,23.7,0,0,1-1.9-1.474,22.131,22.131,0,0,1-1.693-1.621H4.376a2.247,2.247,0,1,1,0-1.5H7.511a20.053,20.053,0,0,1-1.3-1.9,19.793,19.793,0,0,1-1.08-2.057H2.459a.751.751,0,0,1,0-1.5H4.521a19.69,19.69,0,0,1-.611-2.055H.751a.751.751,0,0,1,0-1.5H3.612a15.622,15.622,0,0,1-.183-3.886.751.751,0,0,1,.526-.632c1.067-.327,2.077-.68,3-1.051V3H4.376a2.246,2.246,0,1,1,0-1.5h3.33a.751.751,0,0,1,.751.751V4.207a16.685,16.685,0,0,0,2.9-1.7,5.373,5.373,0,0,0,.858-.762.731.731,0,0,1,1.194,0,5.373,5.373,0,0,0,.858.762,16.686,16.686,0,0,0,2.9,1.7V2.253a.751.751,0,0,1,.751-.751h3.33a2.247,2.247,0,1,1,0,1.5H18.676V4.86c.923.371,1.933.724,3,1.051a.751.751,0,0,1,.526.632,15.638,15.638,0,0,1-.183,3.886H24.88a.751.751,0,0,1,0,1.5H21.721a19.674,19.674,0,0,1-.611,2.055h2.063a.751.751,0,0,1,0,1.5H20.5a19.8,19.8,0,0,1-1.081,2.058,20.066,20.066,0,0,1-1.3,1.9h3.134a2.247,2.247,0,1,1,0,1.5H16.84a22.133,22.133,0,0,1-1.693,1.621,23.694,23.694,0,0,1-1.9,1.474A.747.747,0,0,1,12.816,24.179Zm0-20.916h0A16.1,16.1,0,0,1,9.052,5.588c-.658.308-1.375.609-2.129.9-.652.248-1.335.486-2.031.708a17.167,17.167,0,0,0,.674,5.138A18.8,18.8,0,0,0,12.815,22.5a18.992,18.992,0,0,0,7.267-10.239,17.217,17.217,0,0,0,.657-5.074c-.694-.221-1.377-.459-2.03-.708-.754-.287-1.471-.589-2.131-.9a16.113,16.113,0,0,1-3.764-2.325ZM23.378,19.446a.751.751,0,1,0,.751.751A.752.752,0,0,0,23.378,19.446Zm-21.126,0A.751.751,0,1,0,3,20.2.752.752,0,0,0,2.253,19.446ZM23.378,1.5a.751.751,0,1,0,.751.751A.752.752,0,0,0,23.378,1.5ZM2.253,1.5A.751.751,0,1,0,3,2.253.752.752,0,0,0,2.253,1.5ZM15.579,17.147H10.052a1.37,1.37,0,0,1-1.369-1.369v-4.3a1.357,1.357,0,0,1,.259-.8,1.376,1.376,0,0,1,.659-.492V9.7a3.215,3.215,0,0,1,6.43,0v.489a1.371,1.371,0,0,1,.917,1.292v4.3A1.37,1.37,0,0,1,15.579,17.147Zm-5.394-5.536v4.034h5.261V11.611Zm2.63-3.627A1.715,1.715,0,0,0,11.1,9.7v.412h3.426V9.7A1.715,1.715,0,0,0,12.816,7.984Zm0,6.66a.751.751,0,0,1-.751-.751v-.53a.751.751,0,1,1,1.5,0v.53a.751.751,0,0,1-.751.751Z" transform="translate(0 14.507)" fill="#ef1855"/>
  </g>
</svg>
