<svg xmlns="http://www.w3.org/2000/svg" width="24.179" height="24.179" viewBox="0 0 24.179 24.179">
  <g id="icn10" transform="translate(5)">
    <g id="Change_Pemain" transform="translate(0)">
      <path id="Exclusion_3" data-name="Exclusion 3" d="M9.5,24.179H.864a.864.864,0,0,1-.852-1.005l.623-3.738A2.58,2.58,0,0,1,3.182,17.27h4a2.58,2.58,0,0,1,2.547,2.165l.623,3.738A.863.863,0,0,1,9.5,24.179ZM3.187,19a.857.857,0,0,0-.849.721l-.455,2.733h6.6l-.455-2.733A.857.857,0,0,0,7.175,19H3.187ZM19,22.452H12.089a.864.864,0,1,1,0-1.727h6.045V19.355l-.253.253a.864.864,0,0,1-1.221-1.221l1.726-1.726a.866.866,0,0,1,1.223,0l1.726,1.726a.864.864,0,0,1-1.221,1.221l-.253-.253v2.233a.864.864,0,0,1-.864.864ZM6.045,16.407H4.318a2.591,2.591,0,0,1-2.591-2.591V11.226A2.591,2.591,0,0,1,4.318,8.635H6.045a2.591,2.591,0,0,1,2.591,2.591v2.591a2.591,2.591,0,0,1-2.591,2.591ZM4.318,10.362a.865.865,0,0,0-.864.864v2.591a.865.865,0,0,0,.864.864H6.045a.865.865,0,0,0,.864-.864V11.226a.865.865,0,0,0-.864-.864Zm19,5.181H14.68a.864.864,0,0,1-.852-1.005l.623-3.738A2.58,2.58,0,0,1,17,8.635h4A2.58,2.58,0,0,1,23.544,10.8l.623,3.738a.863.863,0,0,1-.852,1.005ZM17,10.362a.857.857,0,0,0-.849.721L15.7,13.816h6.6l-.455-2.733a.857.857,0,0,0-.849-.721H17Zm2.857-2.59H18.134a2.591,2.591,0,0,1-2.591-2.591V2.591A2.591,2.591,0,0,1,18.134,0h1.727a2.591,2.591,0,0,1,2.591,2.591V5.181a2.591,2.591,0,0,1-2.591,2.591ZM18.134,1.727a.865.865,0,0,0-.864.864V5.181a.865.865,0,0,0,.864.864h1.727a.865.865,0,0,0,.864-.864V2.591a.865.865,0,0,0-.864-.864ZM5.181,7.771h0a.858.858,0,0,1-.612-.254L2.844,5.792,2.822,5.77a.864.864,0,0,1,1.242-1.2l.253.253V2.591a.864.864,0,0,1,.864-.864h8.635a.864.864,0,0,1,0,1.727H6.045V4.824L6.3,4.571l.021-.021a.864.864,0,0,1,1.2,1.242L5.793,7.518h0A.858.858,0,0,1,5.181,7.771Z" transform="translate(-5)" fill="#ef1855"/>
    </g>
  </g>
</svg>
