<svg xmlns="http://www.w3.org/2000/svg" width="24.184" height="24.179" viewBox="0 0 24.184 24.179">
  <path id="icn11" d="M14.341,2.25A12.076,12.076,0,0,0,3.372,19.4a1.465,1.465,0,0,1,.033,1.064l-1.043,3.1a2.175,2.175,0,0,0,2.754,2.749L8.2,25.279a1.476,1.476,0,0,1,1.085.032A12.086,12.086,0,1,0,14.341,2.25Zm0,22.322a10.186,10.186,0,0,1-4.261-.939,3.322,3.322,0,0,0-2.457-.115l-3.1,1.04a.3.3,0,0,1-.319-.079.3.3,0,0,1-.079-.316L5.17,21.048a3.324,3.324,0,0,0-.117-2.434,10.224,10.224,0,1,1,9.287,5.956Zm-1.2-12.054-1.822,1.823,1.822,1.823a.93.93,0,1,1-1.315,1.315L9.343,15a.929.929,0,0,1,0-1.315l2.48-2.48a.93.93,0,0,1,1.315,1.315Zm6.2,1.166a.929.929,0,0,1,0,1.315l-2.48,2.48a.93.93,0,0,1-1.315-1.315l1.822-1.823-1.822-1.823A.93.93,0,0,1,16.858,11.2Z" transform="translate(-2.253 -2.25)" fill="#ef1855"/>
</svg>
