<svg xmlns="http://www.w3.org/2000/svg" width="22" height="22" viewBox="0 0 22 22">
  <g id="icn2" transform="translate(-8 -17)">
    <path id="Path_99934" data-name="Path 99934" d="M23.29,31.71a.952.952,0,0,0,1.43-.07l5-6a1,1,0,0,0-1.54-1.28l-4.3,5.16-3.23-3.23a1,1,0,0,0-1.41,1.41Z" transform="translate(-5)" fill="#ef1855"/>
    <path id="Path_99936" data-name="Path 99936" d="M24,39A11,11,0,1,0,13,28,11,11,0,0,0,24,39Zm0-20a9,9,0,1,1-9,9,9,9,0,0,1,9-9Z" transform="translate(-5)" fill="#ef1855"/>
  </g>
</svg>
