<svg xmlns="http://www.w3.org/2000/svg" width="25.647" height="25.49" viewBox="0 0 25.647 25.49">
  <path id="icn3" d="M21.31,20.3a2.245,2.245,0,1,0-2.245-2.245A2.247,2.247,0,0,0,21.31,20.3Zm0-2.887a.642.642,0,1,1-.642.642A.643.643,0,0,1,21.31,17.409Zm0,3.05a4.341,4.341,0,0,0-4.336,4.336c0,.467.212,1.328,1.629,1.85a8.117,8.117,0,0,0,2.707.415,8.118,8.118,0,0,0,2.707-.415c1.418-.522,1.629-1.383,1.629-1.85a4.341,4.341,0,0,0-4.336-4.336Zm0,5c-1.727,0-2.649-.474-2.733-.667a2.733,2.733,0,0,1,5.467,0C23.958,24.984,23.037,25.458,21.31,25.458ZM4.336,20.3A2.245,2.245,0,1,0,2.091,18.05,2.247,2.247,0,0,0,4.336,20.3Zm0-2.887a.642.642,0,1,1-.642.642A.643.643,0,0,1,4.336,17.409Zm0,3.05A4.341,4.341,0,0,0,0,24.795c0,.467.212,1.328,1.629,1.85a8.117,8.117,0,0,0,2.707.415,8.118,8.118,0,0,0,2.707-.415c1.418-.522,1.629-1.383,1.629-1.85a4.341,4.341,0,0,0-4.336-4.336Zm0,5c-1.727,0-2.649-.474-2.733-.667a2.733,2.733,0,0,1,5.467,0C6.984,24.984,6.062,25.458,4.335,25.458Zm12.491-4.17a.8.8,0,0,1-1.133,0l-3-3-3,3a.8.8,0,0,1-1.133-1.133l3.333-3.333V13.66a.8.8,0,0,1,1.6,0v3.161l3.333,3.333a.8.8,0,0,1,0,1.133Zm-4-9.347A5.184,5.184,0,1,0,7.638,6.756,5.19,5.19,0,0,0,12.823,11.94Zm0-8.766A3.582,3.582,0,1,1,9.241,6.756,3.586,3.586,0,0,1,12.823,3.174ZM10.974,8.483a.8.8,0,0,1,.038-1.133l1.009-.942V4.593a.8.8,0,0,1,1.6,0V6.756a.8.8,0,0,1-.254.586l-1.263,1.18a.8.8,0,0,1-1.133-.038Z" transform="translate(0.001 -1.571)" fill="#ef1855"/>
</svg>
