<svg xmlns="http://www.w3.org/2000/svg" width="24.179" height="24.179" viewBox="0 0 24.179 24.179">
  <g id="icn4" transform="translate(3 13)">
    <path id="Path_99937" data-name="Path 99937" d="M22.552,4.418H21.343V3.209a1.209,1.209,0,0,0-2.418,0V4.418H15.3V3.209a1.209,1.209,0,0,0-2.418,0V4.418H9.254V3.209a1.209,1.209,0,1,0-2.418,0V4.418H5.627A3.631,3.631,0,0,0,2,8.045V22.552a3.631,3.631,0,0,0,3.627,3.627H22.552a3.631,3.631,0,0,0,3.627-3.627V8.045A3.631,3.631,0,0,0,22.552,4.418Zm2.209,19.134a1.21,1.21,0,0,1-1.209,1.209H18.925c-5.356-.075-6.735-.075-9.672,0H4.627a1.21,1.21,0,0,1-1.209-1.209V7.045A1.21,1.21,0,0,1,4.627,5.836H23.552a1.21,1.21,0,0,1,1.209,1.209Z" transform="translate(-5 -15)" fill="#ef1855"/>
    <path id="Path_99950" data-name="Path 99950" d="M16.651,48.018a1.654,1.654,0,0,0-2.794-.816L8.775,43.9a1.8,1.8,0,0,0-.238-1.447,1.819,1.819,0,0,0-.211-.263L11,39.335a1.111,1.111,0,0,0,.553.122,1.146,1.146,0,1,0-1.029-.569L7.789,41.814a1.813,1.813,0,0,0-.392-.128,1.786,1.786,0,0,0-1.193.166L4.433,38.824a1.109,1.109,0,1,0-1.095.319.966.966,0,0,0,.53.008l1.818,3.108a1.78,1.78,0,0,0-.039,2.334L2.1,47.821a1.364,1.364,0,0,0-1.528,2.26,1.365,1.365,0,0,0,1.966-1.776l3.613-3.289a1.8,1.8,0,0,0,.436.175l-.78,3.8a1.139,1.139,0,1,0,.639.134l.8-3.889a1.8,1.8,0,0,0,1.25-.736l5,3.247a1.653,1.653,0,1,0,3.152.27Zm-5.5-10.042a.489.489,0,0,1,.343-.156h.017a.492.492,0,1,1-.36.156ZM3.5,38.511a.455.455,0,1,1,.556-.325.455.455,0,0,1-.556.325ZM1.3,49.662a.711.711,0,0,1,.033-1.422H1.37A.711.711,0,0,1,1.3,49.662Zm4.868.868a.485.485,0,1,1,.137-.667A.485.485,0,0,1,6.171,50.53Zm1.5-6.124a1.169,1.169,0,0,1-1.4-.108,1.148,1.148,0,0,1-.076-1.622,1.129,1.129,0,0,1,.845-.374,1.174,1.174,0,0,1,1.126,1.377,1.147,1.147,0,0,1-.492.727Zm7.576,4.935a1,1,0,0,1-1.186-.77h0a1,1,0,1,1,1.186.77h0Z" transform="translate(0.676 -43.845)" fill="#ef1855" stroke="#ef1855" stroke-width="0.3"/>
  </g>
</svg>
