<svg xmlns="http://www.w3.org/2000/svg" width="24.699" height="18.87" viewBox="0 0 24.699 18.87">
  <path id="icn5" d="M40.079,36.843V34.5a.775.775,0,0,0-.776-.776H30.842V31.5a3.747,3.747,0,1,0-1.552,0v2.229H20.83a.775.775,0,0,0-.776.776v2.34a3.112,3.112,0,1,0,1.552,0V35.279h7.685v1.564a3.112,3.112,0,1,0,1.552,0V35.279h7.685v1.564a3.112,3.112,0,1,0,1.552,0ZM27.871,27.835a2.2,2.2,0,1,1,2.2,2.2A2.2,2.2,0,0,1,27.871,27.835ZM22.39,39.846a1.561,1.561,0,1,1-1.561-1.561A1.562,1.562,0,0,1,22.39,39.846Zm9.237,0a1.561,1.561,0,1,1-1.561-1.561A1.562,1.562,0,0,1,31.627,39.846ZM39.3,41.406a1.561,1.561,0,1,1,1.561-1.561A1.562,1.562,0,0,1,39.3,41.406Z" transform="translate(-17.717 -24.088)" fill="#ef1855"/>
</svg>
