<svg xmlns="http://www.w3.org/2000/svg" width="24.032" height="24.032" viewBox="0 0 24.032 24.032">
  <path id="icn6" d="M19.312,0H4.719A4.725,4.725,0,0,0,0,4.72V19.313a4.725,4.725,0,0,0,4.72,4.72H19.312a4.725,4.725,0,0,0,4.72-4.72V4.72A4.725,4.725,0,0,0,19.312,0ZM22.9,19.313a3.6,3.6,0,0,1-3.593,3.593H4.719a3.6,3.6,0,0,1-3.593-3.593V4.72A3.6,3.6,0,0,1,4.719,1.127H19.312A3.6,3.6,0,0,1,22.9,4.72ZM18.939,14.8l.8.8-2.469,2.469L14.8,15.6l.8-.8L16.7,15.908V9.39a2.062,2.062,0,0,0-4.125,0v5.253a3.189,3.189,0,0,1-6.378,0V8.124L5.09,9.233l-.8-.8,2.47-2.468L9.232,8.437l-.8.8L7.327,8.125v6.518a2.062,2.062,0,0,0,4.125,0V9.39a3.189,3.189,0,0,1,6.378,0v6.518Z" transform="translate(0.001)" fill="#ef1855"/>
</svg>
