<svg xmlns="http://www.w3.org/2000/svg" width="24.917" height="24.941" viewBox="0 0 24.917 24.941">
  <g id="icn7" transform="translate(-8.841 -8.018)">
    <g id="Group_19926" data-name="Group 19926" transform="translate(13.541 8.418)">
      <path id="Exclusion_1" data-name="Exclusion 1" d="M21.08,24.141a.314.314,0,0,1-.167-.048,16.906,16.906,0,0,0-8.855-2.345A16.906,16.906,0,0,0,3.2,24.093a.314.314,0,0,1-.481-.256l-.1-2.853L.173,19.748A.315.315,0,0,1,.148,19.2a20.448,20.448,0,0,1,4.785-2.165l0,.066a.315.315,0,0,0,.306.323h.008a.317.317,0,0,0,.314-.306l.007-.269c-.211.059-.425.121-.634.186l.1-3.655L1.752,9.111a1.573,1.573,0,0,1,.8-2.466l5.16-1.528L10.762.682a1.573,1.573,0,0,1,2.593,0L16.4,5.117l5.16,1.528a1.573,1.573,0,0,1,.8,2.466l-3.276,4.27.1,3.655h0A20.444,20.444,0,0,1,23.969,19.2a.314.314,0,0,1-.019.544L21.585,21l-.191,2.843a.315.315,0,0,1-.314.293Zm-9.022-3.022a19.277,19.277,0,0,1,4.71.571,15.946,15.946,0,0,1,4.032,1.6l.169-2.5a.313.313,0,0,1,.166-.256l.113-.06,1.916-1.02A22.358,22.358,0,0,0,12.058,16.61,22.364,22.364,0,0,0,.965,19.443l2.109,1.063a.315.315,0,0,1,.173.27c.086,2.505.086,2.506.086,2.507a15.956,15.956,0,0,1,4.026-1.595A19.28,19.28,0,0,1,12.058,21.119Zm0-5.139a24.245,24.245,0,0,1,6.491.869l.01.4a.317.317,0,0,0,.314.306h.008a.315.315,0,0,0,.306-.323l-.005-.195h0c-.207-.064-.42-.127-.634-.186l-.093-3.563a.316.316,0,0,1,.065-.2l3.344-4.358a.944.944,0,0,0-.481-1.479l-5.267-1.56a.316.316,0,0,1-.17-.124L12.836,1.038a.944.944,0,0,0-1.556,0L8.169,5.565A.316.316,0,0,1,8,5.689L2.732,7.249a.944.944,0,0,0-.481,1.479L5.6,13.086a.316.316,0,0,1,.065.2L5.567,16.85A24.244,24.244,0,0,1,12.058,15.98Zm-.079-1.788a8.71,8.71,0,0,1-2.166-.274l-.245-.063-.034-.009L9.35,13.8a1.153,1.153,0,0,1-.835-1.384l.192-.809a1.992,1.992,0,0,1,1.1-1.346l.774-.359a.315.315,0,0,1,.308.024l.381.256a1.42,1.42,0,0,0,1.583,0l.381-.256a.315.315,0,0,1,.308-.024l.774.359a1.992,1.992,0,0,1,1.1,1.346l.1.433,0,.019.08.336a1.153,1.153,0,0,1-.864,1.391l-.291.067-.008,0-.514.118A8.711,8.711,0,0,1,11.979,14.193Zm-1.294-3.645h0l-.613.285a1.355,1.355,0,0,0-.752.921l-.192.809a.527.527,0,0,0,.38.629l.463.119a8.073,8.073,0,0,0,3.814.05l.813-.187a.524.524,0,0,0,.393-.632l-.077-.323v0l-.11-.461a1.355,1.355,0,0,0-.752-.921l-.613-.285L13.2,10.7a2.05,2.05,0,0,1-2.285,0l-.234-.157Zm1.376-.824a1.581,1.581,0,0,1-.673-.216,2.592,2.592,0,0,1-.933-.881,3.379,3.379,0,0,1-.484-1.844,2.237,2.237,0,0,1,.16-.852,1.879,1.879,0,0,1,.44-.65,1.947,1.947,0,0,1,.663-.414,2.423,2.423,0,0,1,1.654,0,1.947,1.947,0,0,1,.663.414,1.878,1.878,0,0,1,.44.65,2.237,2.237,0,0,1,.16.852,3.379,3.379,0,0,1-.484,1.844,2.592,2.592,0,0,1-.933.881A1.581,1.581,0,0,1,12.061,9.723Zm0-4.374A1.384,1.384,0,0,0,10.6,6.782a2.3,2.3,0,0,0,1.091,2.174.985.985,0,0,0,.37.138.985.985,0,0,0,.37-.138,2.3,2.3,0,0,0,1.091-2.174A1.384,1.384,0,0,0,12.061,5.349Z" transform="translate(-4.3)" fill="#ef1855" stroke="#ef1855" stroke-width="0.8"/>
    </g>
  </g>
</svg>
