<svg xmlns="http://www.w3.org/2000/svg" width="25.132" height="24.179" viewBox="0 0 25.132 24.179">
  <g id="icn8" transform="translate(4.005 -8.816)">
    <g id="Layer_51_14_" transform="translate(0 8.816)">
      <path id="Path_99956" data-name="Path 99956" d="M23.349,19.617A10.783,10.783,0,1,0,6.183,28.289L3.691,31.611a.865.865,0,0,0,1.383,1.037l2.582-3.443a10.7,10.7,0,0,0,9.23.285l2.367,3.157a.865.865,0,0,0,1.383-1.037L18.422,28.66a10.776,10.776,0,0,0,4.927-9.042ZM12.566,28.672a9.054,9.054,0,1,1,9.054-9.055h0A9.064,9.064,0,0,1,12.566,28.672ZM1.585,14.012a.865.865,0,0,1-1.439-.962,14.946,14.946,0,0,1,3.57-3.733.865.865,0,0,1,1.05,1.373l-.025.019a13.21,13.21,0,0,0-3.156,3.3Zm23.164.237a.865.865,0,0,1-1.2-.236h0a13.227,13.227,0,0,0-3.157-3.3.865.865,0,0,1,1.023-1.392,14.975,14.975,0,0,1,3.571,3.733.865.865,0,0,1-.237,1.2ZM17.832,23.63a.865.865,0,1,1-.96,1.439L11.685,21.61a.864.864,0,0,1-.386-.719V14.839a.865.865,0,1,1,1.729,0v5.589Z" transform="translate(-4.005 -8.816)" fill="#ef1855"/>
    </g>
  </g>
</svg>
