<svg xmlns="http://www.w3.org/2000/svg" width="22" height="22" viewBox="0 0 22 22">
  <g id="icn9" transform="translate(5.027 -0.709)">
    <path id="Exclusion_2" data-name="Exclusion 2" d="M21.355,22H.645a.645.645,0,0,1,0-1.289H1.934V13.535a.645.645,0,0,1,.645-.645H3.867a.645.645,0,0,1,.645.645v7.176h5.2v-4.6a.645.645,0,0,1,.645-.645h1.289a.645.645,0,0,1,.645.645v4.6h5.2V10.957a.645.645,0,0,1,.645-.645h1.289a.645.645,0,0,1,.645.645v9.754h1.289a.645.645,0,1,1,0,1.289Zm-7.777-7.82H8.422a.645.645,0,0,1-.645-.645V12.246A3.22,3.22,0,0,1,11,9.023a1.928,1.928,0,1,1,.753-.152A1.922,1.922,0,0,1,11,9.023a3.22,3.22,0,0,1,3.223,3.223v1.289a.645.645,0,0,1-.645.645ZM5.8,11.6H.645A.645.645,0,0,1,0,10.957V9.668A3.22,3.22,0,0,1,3.223,6.445a1.928,1.928,0,1,1,.753-.152,1.921,1.921,0,0,1-.753.152A3.22,3.22,0,0,1,6.445,9.668v1.289A.645.645,0,0,1,5.8,11.6ZM21.355,9.023H16.2a.645.645,0,0,1-.645-.645V7.09a3.22,3.22,0,0,1,3.223-3.223A1.934,1.934,0,0,1,18.025.152,1.934,1.934,0,0,1,19.53,3.715a1.921,1.921,0,0,1-.753.152A3.22,3.22,0,0,1,22,7.09V8.379a.645.645,0,0,1-.645.645Z" transform="translate(-5.027 0.709)" fill="#ef1855"/>
  </g>
</svg>
