<svg xmlns="http://www.w3.org/2000/svg" width="19.432" height="24.692" viewBox="0 0 19.432 24.692">
  <path id="career-icn" d="M7.605,12.723a2.984,2.984,0,0,0,5.244.014,7.053,7.053,0,0,1-.844-1.047,2.677,2.677,0,0,1-1.809.589,2.7,2.7,0,0,1-2.036-.82,5.933,5.933,0,0,1-.555,1.266ZM.306,23.449l6.5-6.076c1.594,1.592,3.17,3.17,4.78,4.759l4.261-4.315-1.982-1.976,4.156-.038,1.407-.012V21.4l-1.9-1.905c-1.3,1.318-2.595,2.641-3.9,3.947-1.648,1.648-2.432,1.674-4.078.028l-2.78-2.741L4.04,23.449ZM13.181,12.425c1.608,1.136,3.933.752,5.445,1.65l-4.677.042a1.911,1.911,0,0,0-1.335.466,1.654,1.654,0,0,0-.078,2.44l.8.8-1.481,1.491h-.583q-1.491-1.485-2.995-2.991l-.173-.171a1.921,1.921,0,0,0-2.6,0L2.124,19.319H0c.159-.874.173-1.9.322-2.836.641-4.02,4.452-2.352,6.87-4.042a6.783,6.783,0,0,0,.6-1.373A10.853,10.853,0,0,1,6.93,9.836L6.046,8.444a2.545,2.545,0,0,1-.5-1.272,1,1,0,0,1,.078-.46.84.84,0,0,1,.3-.35.949.949,0,0,1,.211-.109,21.925,21.925,0,0,1-.042-2.5,3.479,3.479,0,0,1,.109-.567A3.355,3.355,0,0,1,7.684,1.3,4.7,4.7,0,0,1,8.924.75C9.2.671,8.884.044,9.171.016a6.354,6.354,0,0,1,4.408,1.911,3.385,3.385,0,0,1,.856,2.145l-.054,2.271h0a.631.631,0,0,1,.462.478A1.92,1.92,0,0,1,14.6,8.015h0a.123.123,0,0,1-.014.028l-1,1.642a8.5,8.5,0,0,1-1.224,1.686,7.374,7.374,0,0,0,.784,1.031.115.115,0,0,1,.022.022ZM6.287,6.854a.647.647,0,0,0-.032.6,7.47,7.47,0,0,0,.724,1.274l.519.822A7.358,7.358,0,0,0,8.673,11.1a2.368,2.368,0,0,0,3.162-.054,7.81,7.81,0,0,0,1.206-1.65l.985-1.624a1.48,1.48,0,0,0,.2-.862c-.05-.163-.4-.161-.575-.151a.319.319,0,0,1-.076,0,1.556,1.556,0,0,1-.271-.014l.338-1.5c-2.5.4-4.088-1.439-6.735-.346L7.1,6.663c-.283.014-.6-.08-.822.185Z" transform="translate(0 -0.003)" fill="#04000a" fill-rule="evenodd"/>
</svg>
