<svg xmlns="http://www.w3.org/2000/svg" width="17.512" height="17.5" viewBox="0 0 17.512 17.5">
  <g id="get-started" transform="translate(0.753 0.761)">
    <path id="get-satrted" d="M19.281,3.589a.17.17,0,0,0-.127-.131c-2.092-.511-6.925,1.311-9.543,3.93a11.318,11.318,0,0,0-1.273,1.5,4.736,4.736,0,0,0-2.3.288c-1.942.854-2.507,3.084-2.665,4.041a.344.344,0,0,0,.377.4l3.118-.342a6.932,6.932,0,0,0,.042.7.7.7,0,0,0,.2.427l1.207,1.207a.7.7,0,0,0,.427.2,6.919,6.919,0,0,0,.7.042L9.1,18.977a.344.344,0,0,0,.4.377c.957-.154,3.191-.719,4.041-2.661a4.757,4.757,0,0,0,.292-2.3,11.336,11.336,0,0,0,1.507-1.273C17.974,10.51,19.785,5.785,19.281,3.589ZM13.006,9.737a1.642,1.642,0,1,1,2.322,0A1.641,1.641,0,0,1,13.006,9.737Z" transform="translate(-3.366 -3.372)" fill="none" stroke="#fff" stroke-width="1.5"/>
    <path id="Path_54" data-name="Path 54" d="M9.332,25.208h0a1.459,1.459,0,0,1-.761.308,1.035,1.035,0,0,1-1.192-1.192,1.43,1.43,0,0,1,.3-.757l0,0a.129.129,0,0,0-.108-.219,1.768,1.768,0,0,0-1.034.5c-.692.692-.757,3.261-.757,3.261s2.572-.065,3.264-.757a1.756,1.756,0,0,0,.5-1.034A.132.132,0,0,0,9.332,25.208Z" transform="translate(-4.463 -12.421)" fill="none" stroke="#fff" stroke-width="1.5"/>
  </g>
</svg>
