<svg xmlns="http://www.w3.org/2000/svg" width="22.72" height="22.72" viewBox="0 0 22.72 22.72">
  <path id="glob" d="M14.735,3.375a11.36,11.36,0,1,0,11.36,11.36A11.36,11.36,0,0,0,14.735,3.375ZM13.558,24.4A9.738,9.738,0,0,1,7.324,8.418a10.789,10.789,0,0,1,.11,1.32c-.09,1.3-.218,2.113.543,3.209a5.3,5.3,0,0,1,.513,1.533c.141.484.7.737,1.093,1.035.784.6,1.534,1.3,2.366,1.829.549.349.892.523.731,1.193a4.232,4.232,0,0,1-.444,1.35,2.737,2.737,0,0,0,.456,1.223c.41.409.816.785,1.262,1.154C14.647,22.837,13.888,23.58,13.558,24.4ZM21.62,21.62A9.668,9.668,0,0,1,16.565,24.3a4.039,4.039,0,0,1,1.2-1.6,4.068,4.068,0,0,0,1.076-1.33,9.239,9.239,0,0,1,.742-1.268c.386-.6-.951-1.493-1.385-1.681a14.274,14.274,0,0,1-2.576-1.6c-.617-.434-1.871.227-2.568-.077a13.436,13.436,0,0,1-2.571-1.766c-.856-.645-.815-1.4-.815-2.348.671.025,1.625-.186,2.07.354.141.17.624.931.947.661.264-.221-.2-1.106-.285-1.314-.273-.64.623-.889,1.082-1.323.6-.566,1.883-1.454,1.781-1.859s-1.285-1.555-1.98-1.376c-.1.027-1.021.988-1.2,1.139q.007-.471.014-.941c0-.2-.37-.4-.352-.529.044-.323.943-.909,1.166-1.166-.157-.1-.691-.557-.853-.49-.392.163-.834.276-1.226.439a2.494,2.494,0,0,0-.036-.39,9.644,9.644,0,0,1,2.475-.718l.769.309.543.645.542.559.474.153.753-.71-.194-.507V5.1a9.631,9.631,0,0,1,4.125,1.628c-.22.02-.462.052-.735.087a2.447,2.447,0,0,0-.38-.143c.357.767.729,1.523,1.107,2.28.4.808,1.3,1.675,1.457,2.529.185,1.006.057,1.919.158,3.1a5.3,5.3,0,0,0,1.285,2.434,2.572,2.572,0,0,0,1,.122A9.677,9.677,0,0,1,21.62,21.62Z" transform="translate(-3.375 -3.375)"/>
</svg>
