<svg xmlns="http://www.w3.org/2000/svg" width="32.256" height="25.128" viewBox="0 0 32.256 25.128">
  <path id="nav-claud" d="M34.128,20.28a5.907,5.907,0,0,1-5.916,5.94h-13a5.935,5.935,0,0,1-5.952-5.94,6.2,6.2,0,0,1,.5-2.4A6.042,6.042,0,0,1,8.4,13.92a6.325,6.325,0,0,1,.492-2.448,6.276,6.276,0,0,1,5.8-3.84A6.247,6.247,0,0,1,19.344,9.72a6.418,6.418,0,0,1,3.24-.792,7.13,7.13,0,0,1,6.972,5.592A5.7,5.7,0,0,1,32.844,16.6,5.786,5.786,0,0,1,34.128,20.28Zm-2.052,0a3.714,3.714,0,0,0-1.008-2.6,3.937,3.937,0,0,0-2.52-1.272l-.6-.036a.2.2,0,0,1-.228-.216l-.084-.648a5.135,5.135,0,0,0-1.692-3.252,4.844,4.844,0,0,0-3.372-1.308,4.988,4.988,0,0,0-3.444,1.32,4.788,4.788,0,0,0-1.644,3.252l-.084.7a.23.23,0,0,1-.252.2H15.216a3.934,3.934,0,0,0-3.888,3.876,3.822,3.822,0,0,0,1.14,2.784A3.718,3.718,0,0,0,15.2,24.228H28.212a3.678,3.678,0,0,0,2.724-1.164A3.862,3.862,0,0,0,32.076,20.28ZM24.036,5.556a1.1,1.1,0,0,1-.288.756l-.792.768a1.123,1.123,0,0,1-.768.3.884.884,0,0,1-.66-.312,1.052,1.052,0,0,1-.288-.744.91.91,0,0,1,.312-.708l.708-.792a1.065,1.065,0,0,1,.732-.288,1.014,1.014,0,0,1,.744.3A.943.943,0,0,1,24.036,5.556Zm-6.408,5.316a4.259,4.259,0,0,0-5.964.036,4.094,4.094,0,0,0-1.248,3.012,4.451,4.451,0,0,0,.612,2.208A5.736,5.736,0,0,1,15.216,14.4H15.6A7.156,7.156,0,0,1,17.628,10.872ZM15.672,4.536a1.035,1.035,0,0,1-.276.744.923.923,0,0,1-.708.276,1.035,1.035,0,0,1-.744-.276.987.987,0,0,1-.276-.744V2.076a.95.95,0,0,1,.288-.708.977.977,0,0,1,.732-.276.988.988,0,0,1,.708.276.923.923,0,0,1,.276.708v2.46ZM9.048,7.284a1.027,1.027,0,0,1-.264.744,1.24,1.24,0,0,1-.744.288,1.2,1.2,0,0,1-.708-.288L5.616,6.312a1.111,1.111,0,0,1-.288-.768.984.984,0,0,1,1-1.008.905.905,0,0,1,.7.288L8.784,6.54A1.153,1.153,0,0,1,9.048,7.284ZM8.1,21.492a1.061,1.061,0,0,1-.3.756L7.02,23a.905.905,0,0,1-.7.288.943.943,0,0,1-.72-.3,1.033,1.033,0,0,1-.288-.744.961.961,0,0,1,.288-.7l.78-.78a.934.934,0,0,1,.684-.288.977.977,0,0,1,.72.288A.953.953,0,0,1,8.1,21.492ZM6.336,13.92a.921.921,0,0,1-.312.7,1,1,0,0,1-.732.288H2.844a.979.979,0,0,1-.7-.276.923.923,0,0,1-.276-.708,1.016,1.016,0,0,1,.276-.72.933.933,0,0,1,.7-.3H5.292a.987.987,0,0,1,.732.3A.947.947,0,0,1,6.336,13.92Z" transform="translate(-1.872 -1.092)" fill="#ef1855"/>
</svg>
