<svg xmlns="http://www.w3.org/2000/svg" width="23.219" height="21.345" viewBox="0 0 23.219 21.345">
  <g id="support" transform="translate(-902.267 -21.551)">
    <path id="headphone-headset-icon" d="M2.893,16.527a3.881,3.881,0,0,0,.232.879,2.349,2.349,0,0,0,.52.8,3.539,3.539,0,0,0,2.729.726h.5a3.215,3.215,0,0,1,2.608-1.051c1.563,0,2.834.769,2.834,1.72s-1.268,1.72-2.834,1.72A3.262,3.262,0,0,1,6.9,20.312H6.374c-1.338,0-2.56,0-3.694-1.122a3.738,3.738,0,0,1-.828-1.268,5.4,5.4,0,0,1-.34-1.395A1.549,1.549,0,0,1,0,14.981V9.407A1.549,1.549,0,0,1,1.546,7.861h.11A8.312,8.312,0,0,1,6.166,1.42a11.687,11.687,0,0,1,4.675-1.4,10.971,10.971,0,0,1,4.9.693,9.671,9.671,0,0,1,5.905,7.146h.025a1.549,1.549,0,0,1,1.546,1.546v5.574a1.549,1.549,0,0,1-1.546,1.546H20.128V8a8.161,8.161,0,0,0-4.939-5.875,9.448,9.448,0,0,0-4.229-.593A10.14,10.14,0,0,0,6.9,2.737,6.809,6.809,0,0,0,3.133,8.307a.756.756,0,0,1-.042.217v8Z" transform="translate(902.267 21.572)" fill="#04000a"/>
  </g>
</svg>
