<svg xmlns="http://www.w3.org/2000/svg" xmlns:xlink="http://www.w3.org/1999/xlink" width="401" height="879.29" viewBox="0 0 401 879.29">
  <defs>
    <linearGradient id="linear-gradient" x1="0.452" y1="1" x2="0.447" y2="-0.262" gradientUnits="objectBoundingBox">
      <stop offset="0" stop-color="#6d007d"/>
      <stop offset="1" stop-color="#ef1855"/>
    </linearGradient>
    <clipPath id="clip-path">
      <rect id="Rectangle_3788" data-name="Rectangle 3788" width="22.024" height="30.925" transform="translate(0 0)" fill="#fdec07"/>
    </clipPath>
  </defs>
  <g id="mobile-slider8-bg" transform="translate(1 -8393.566)">
    <path id="Path_100211" data-name="Path 100211" d="M-2282,8732.989s12.158-6.769,23.508,1.084,18.8,14.081,33.2,3.249,27.273-6.77,37.267,2.438,26.6,2.166,30.491-6.771,18.616-15.281,28.12,1.9,26.426,10.019,32.524,0,26.257-11.1,36.082,3.791,29.983-3.791,29.983-3.791,16.6-14.893,32.185,3.791,34.388-6.5,34.388-6.5,12.536-10.832,28.459,4.332,34.388-2.979,34.388-2.979,6.776-15.163,20.328-1.353c.169.812,0,842.534,0,842.534l-400.925.812Z" transform="translate(2281 -330.508)" fill="url(#linear-gradient)"/>
    <path id="Path_100225" data-name="Path 100225" d="M9.9.4C-1.7,3.686-3.2,45.085,5.9,53.8c8.666,8.282,48.727-12.721,48.727-25.3C54.631,16.4,22.089-3.03,9.9.4" transform="translate(16.855 9217.174)" fill="#ef1855"/>
    <g id="watch_icon" data-name="watch icon" transform="translate(-863.581 7808.3)" opacity="0.4">
      <g id="Path_100023" data-name="Path 100023" transform="translate(1098 615.48)" fill="none">
        <path d="M126.9,0a167.2,167.2,0,0,1,38.263,4.415c-.1,109.315-.184,234,.419,319.013a166.969,166.969,0,0,1-38.682,4.514c-80.887,0-148.207-57.628-162.5-133.707-5.662.016-17.539.538-24.827.311-.592-5.588-.734-54.588-.116-60.4,5.452,0,22.8.229,24.818.25C-21.61,57.889,45.829,0,126.9,0Z" stroke="none"/>
        <path d="M 126.8989562988281 1.5 C 107.2498779296875 1.5 88.03633117675781 4.9141845703125 69.79200744628906 11.64773559570312 C 60.99266815185547 14.89535522460938 52.41337585449219 18.93280029296875 44.29241943359375 23.64797973632812 C 36.26133728027344 28.31094360351562 28.57308197021484 33.69760131835938 21.44120788574219 39.65835571289062 C 14.33621215820312 45.59658813476562 7.694419860839844 52.1788330078125 1.700248718261719 59.22232055664062 C -4.316749572753906 66.29263305664062 -9.756744384765625 73.91664123535156 -14.46853637695312 81.88247680664062 C -19.23324584960938 89.93772888183594 -23.31632995605469 98.44964599609375 -26.60437774658203 107.1817169189453 C -29.95166778564453 116.0711822509766 -32.52317047119141 125.3178405761719 -34.24736785888672 134.6649780273438 L -34.47637176513672 135.9063873291016 L -35.73870086669922 135.8927612304688 C -36.09511566162109 135.8888854980469 -36.93187713623047 135.8786010742188 -38.09807586669922 135.8641815185547 C -42.98865509033203 135.8037872314453 -53.84995269775391 135.6697082519531 -59.14208221435547 135.64599609375 C -59.35233306884766 139.8374786376953 -59.46831512451172 150.8266296386719 -59.43624114990234 164.4259338378906 C -59.40473175048828 177.7766418457031 -59.24077606201172 188.9145050048828 -59.02436065673828 193.0794525146484 C -58.15581512451172 193.0951690673828 -57.20728302001953 193.1028900146484 -56.15758514404297 193.1028900146484 C -52.18091583251953 193.1028900146484 -47.60337066650391 192.9887237548828 -43.56465911865234 192.8880157470703 C -40.38295745849609 192.8086395263672 -37.63507843017578 192.7401428222656 -35.60149383544922 192.7343902587891 L -34.35341644287109 192.7308959960938 L -34.12303924560547 193.95751953125 C -32.37715911865234 203.2530212402344 -29.78820037841797 212.4488830566406 -26.42800140380859 221.2896423339844 C -23.12674713134766 229.9753875732422 -19.03450012207031 238.4421081542969 -14.26491546630859 246.4546356201172 C -9.547416687011719 254.3796844482422 -4.105667114257812 261.9644775390625 1.909255981445312 268.9983825683594 C 7.902336120605469 276.0068054199219 14.53945922851562 282.5562133789062 21.63629150390625 288.4647216796875 C 28.76116943359375 294.3966064453125 36.43912506103516 299.7571105957031 44.45696258544922 304.3973388671875 C 52.56575393676758 309.0901794433594 61.130126953125 313.1085205078125 69.91212463378906 316.3406677246094 C 88.12312316894531 323.0430908203125 107.2962493896484 326.4415283203125 126.8989562988281 326.4415283203125 C 139.4616394042969 326.4415283203125 151.9615325927734 325.0283813476562 164.0721130371094 322.240234375 C 163.4987030029297 240.2296142578125 163.5532684326172 120.9593353271484 163.660400390625 5.60772705078125 C 151.6501159667969 2.8817138671875 139.2886352539062 1.5 126.8989562988281 1.5 M 126.8989562988281 0 C 140.04541015625 0 152.8334197998047 1.52227783203125 165.1614990234375 4.414764404296875 C 165.0596313476562 113.7293090820312 164.9771270751953 238.4166412353516 165.5805053710938 323.4276733398438 C 153.1885833740234 326.376708984375 140.2280426025391 327.9415283203125 126.8989562988281 327.9415283203125 C 46.01183700561523 327.9415283203125 -21.30833435058594 270.313232421875 -35.59725189208984 194.2343902587891 C -41.25882720947266 194.2503509521484 -53.13658905029297 194.7728118896484 -60.42417144775391 194.5458068847656 C -61.01662445068359 188.9582214355469 -61.15850067138672 139.9575958251953 -60.54041290283203 134.1423950195312 C -55.08858489990234 134.1423950195312 -37.73583221435547 134.37109375 -35.72249603271484 134.3928527832031 C -21.60995483398438 57.88876342773438 45.8292121887207 0 126.8989562988281 0 Z" stroke="none" fill="#be94c9"/>
      </g>
      <g id="Ellipse_1845" data-name="Ellipse 1845" transform="translate(1139.652 629.422)" fill="#ce86e1" stroke="#ce86e1" stroke-width="1">
        <ellipse cx="6.136" cy="5.96" rx="6.136" ry="5.96" stroke="none"/>
        <ellipse cx="6.136" cy="5.96" rx="5.636" ry="5.46" fill="none"/>
      </g>
      <g id="Ellipse_1846" data-name="Ellipse 1846" transform="translate(1139.781 917.565)" fill="#ce86e1" stroke="#ce86e1" stroke-width="1">
        <circle cx="6.153" cy="6.153" r="6.153" stroke="none"/>
        <circle cx="6.153" cy="6.153" r="5.653" fill="none"/>
      </g>
      <line id="Line_1099" data-name="Line 1099" x2="16.782" y2="20.139" transform="translate(1160.292 652.408)" fill="none" stroke="#ce86e1" stroke-linecap="round" stroke-width="18"/>
      <line id="Line_1100" data-name="Line 1100" y1="20.336" x2="16.829" transform="translate(1160.338 886.422)" fill="none" stroke="#ce86e1" stroke-linecap="round" stroke-width="18"/>
    </g>
    <path id="Path_100224" data-name="Path 100224" d="M172.685,81.274C151.154,31.991,101.206-.027,45.9,0H35.038C15.687,0,0,15.175,0,33.893s15.669,33.9,35.02,33.91H45.227c37.322,0,68.065,29.023,68.169,65.127s-30.211,65.51-67.5,65.51H35.038C15.687,198.441,0,213.615,0,232.334s15.687,33.893,35.038,33.893H45.882c55.3.008,105.242-31.994,126.8-81.257a129.308,129.308,0,0,0,0-103.7" transform="translate(0 8940.689)" fill="#e50045" opacity="0.1"/>
    <g id="Group_12445" data-name="Group 12445" transform="translate(17.32 8432.319) rotate(8)" clip-path="url(#clip-path)">
      <path id="Path_67" data-name="Path 67" d="M.774,2.41a5.231,5.231,0,0,0,1.753,7.2A5.272,5.272,0,0,0,9.8,8.013,5.227,5.227,0,0,0,7.981.825,5.189,5.189,0,0,0,.772,2.41" transform="translate(11.466 0)" fill="#fdec07"/>
      <path id="Path_68" data-name="Path 68" d="M.489,1.543a3.4,3.4,0,0,0,1.153,4.65A3.373,3.373,0,0,0,6.324,5.165,3.407,3.407,0,0,0,5.167.513,3.433,3.433,0,0,0,.489,1.542" transform="translate(3.909 13.873)" fill="#fdec07"/>
      <path id="Path_69" data-name="Path 69" d="M.342,1.078a2.361,2.361,0,0,0,.8,3.233,2.376,2.376,0,0,0,3.292-.69A2.375,2.375,0,0,0,3.592.365,2.362,2.362,0,0,0,.34,1.079" transform="translate(0 26.233)" fill="#fdec07"/>
    </g>
  </g>
</svg>
